<?xml version="1.0" encoding="utf-8"?>
<!-- Generator: Adobe Illustrator 27.5.0, SVG Export Plug-In . SVG Version: 6.00 Build 0)  -->
<svg version="1.1" xmlns="http://www.w3.org/2000/svg" xmlns:xlink="http://www.w3.org/1999/xlink" x="0px" y="0px"
	 viewBox="0 0 1200 1200" style="enable-background:new 0 0 1200 1200;" xml:space="preserve">
<g id="Background">
	<rect style="fill:#323234;" width="1200" height="1200"/>
</g>
<g id="Graphic_elements">
	<g>
		<path style="fill:none;stroke:#D7BE8A;stroke-width:7;stroke-linecap:round;stroke-linejoin:round;stroke-miterlimit:10;" d="
			M371.555,738.802c-22.09,47.343,12.458,101.6,64.701,101.6l0,0c39.553,0,71.706-32.155,71.399-71.707
			c-0.237-30.532,1.169-59.347,7.289-59.849c34.116-2.795,91.607-8.141,106.866-8.141h72.215c13.696,0,26.921-4.992,37.2-14.043
			l112.86-99.365l82.606-93.806c0,0,1.4-16.335-25.202-5.134c-26.602,11.2-53.203,43.87-53.203,43.87s2.8-37.803,0-43.403
			c-2.801-5.6-25.668-53.671-35.47-58.805c-9.8-5.134-18.668,22.402-12.134,41.07c6.534,18.668,14.467,39.669,14.467,39.669
			l-9.8,53.204l-7.934-27.068c0,0,8.401-5.133,8.401-11.667c0-6.534-3.734-13.535-14.001-15.868
			c-4.378-0.995-6.205-1.225-6.867-1.164c-1.864-3.853-11.314-22.845-19.268-28.705c-8.867-6.534-36.869-34.536-42.937-35.003
			c-6.067-0.467-10.734,9.334-2.8,30.336c7.934,21.001,25.202,35.469,25.202,35.469l-11.201,1.867c0,0-32.202-40.136-40.603-40.136
			c-8.401,0-13.534,13.068-6.067,26.135c7.467,13.068,11.2,20.535,11.2,20.535s-69.538,9.801-87.74,9.801
			c-18.201,0-80.739,18.668-96.14,29.402c-15.401,10.734-64.317,40.088-76.072,52.737
			C426.955,623.078,397.504,683.188,371.555,738.802z M750.974,555.339h7.713c0,0,1.548,10.339,2.792,16.557
			c1.245,6.219-10.505,9.096-10.505,9.096s2.591-9.345,2.804-11.196C753.993,567.944,750.974,555.339,750.974,555.339z
			 M666.973,571.896l47.67-9.239l1.334,14.14l-8.865,11.898C685.645,586.591,666.973,571.896,666.973,571.896z"/>
		<path style="fill:none;stroke:#D7BE8A;stroke-width:7;stroke-linecap:round;stroke-linejoin:round;stroke-miterlimit:10;" d="
			M698.475,518.692l14.001,21.002l3.501,37.103l-26.602,35.703c0,0-126.662-15.142-179.052,22.402"/>
		<path style="fill:none;stroke:#D7BE8A;stroke-width:7;stroke-linecap:round;stroke-linejoin:round;stroke-miterlimit:10;" d="
			M721.577,657.302c0,0,32.202-77.705,32.202-87.506c0-9.801-13.126-49.529-19.835-57.638"/>
		<path style="fill:none;stroke:#D7BE8A;stroke-width:7;stroke-linecap:round;stroke-linejoin:round;stroke-miterlimit:10;" d="
			M785.281,508.891l12.134,28.002l7.934,27.069l2.341,7.516c1.331,4.272,0.767,8.911-1.55,12.74l-30.66,50.683"/>
		
			<line style="fill:none;stroke:#D7BE8A;stroke-width:7;stroke-linecap:round;stroke-linejoin:round;stroke-miterlimit:10;" x1="848.286" y1="532.227" x2="848.286" y2="565.596"/>
		
			<polyline style="fill:none;stroke:#D7BE8A;stroke-width:7;stroke-linecap:round;stroke-linejoin:round;stroke-miterlimit:10;" points="
			745.145,510.291 753.779,522.543 758.687,555.339 		"/>
	</g>
</g>
</svg>
