<?xml version="1.0" encoding="utf-8"?>
<!-- Generator: Adobe Illustrator 27.5.0, SVG Export Plug-In . SVG Version: 6.00 Build 0)  -->
<svg version="1.1" xmlns="http://www.w3.org/2000/svg" xmlns:xlink="http://www.w3.org/1999/xlink" x="0px" y="0px"
	 viewBox="0 0 1122 1122" style="enable-background:new 0 0 1122 1122;" xml:space="preserve">
<g id="BG">
	<rect style="fill:#FFFFFF;" width="1122" height="1122"/>
</g>
<g id="Object">
	<g>
		<path d="M415.167,370.143c3.518,4.205,6.931,8.496,10.237,12.871c1.646,2.179,3.266,4.38,4.858,6.6
			c1.434,2.004,3.57,4.225,4.524,6.501c1.448,3.453-0.288,8.774-0.23,12.604c0.06,4.005-0.021,8.319,0.759,12.195
			c1.632,8.121-0.676,16.8,1.27,24.875c0.584,2.421,0.85,5.02,0.779,7.508c-0.064,2.348,0.544,3.636,1.243,5.773
			c0.293,0.896,0.479,1.957,0.31,2.902c-0.279,1.577-0.592,0.684-0.902,1.782c-0.562,1.994,0.024,4.051,0.604,6.002
			c-2.272-2.576-4.767-4.702-7.57-6.682c-1.491-1.053-2.593-2.387-3.979-3.54c-1.202-0.998-2.646-1.466-3.916-2.35
			c-2.498-1.737-4.741-4.036-7.034-6.03c-1.491-1.295-2.956-2.592-4.385-3.953c-0.757-0.719-3.517-3.728-4.143-3.032
			c-1.02-1.737-2.276-2.009-3.976-3.149c-2.186-1.465-3.761-3.297-5.684-5.016c-1.858-1.663-4.245-1.967-6.068-3.73
			c-1.478-1.431-3.129-2.511-5.016-3.371c-0.913-0.417-3.978-1.908-4.958-0.95c-1.222,1.194,1.652,3.398,2.372,4.064
			c1.422,1.319,2.998,2.477,4.37,3.84c0.566,0.563,5.013,4.174,4.384,2.407c0.049,0.546,3.922,3.39,4.574,3.921
			c2.009,1.631,4.224,2.677,6.464,3.877c2.321,1.243,4.306,3.198,6.333,4.864c2.163,1.78,4.494,3.363,6.737,5.04
			c2.023,1.514,3.899,3.172,6.126,4.365c2.15,1.151,3.389,3.025,5.217,4.587c3.611,3.089,6.576,7.001,10.3,9.846
			c1.742,1.331,2.451,1.97,3.264,4.007c1.109,2.775,2.306,5.516,3.466,8.272c2.321,5.514,4.571,11.094,6.723,16.676
			c3.953,10.25,5.431,20.97,11.085,30.561c3.25,5.513,6.123,10.813,7.44,17.13c1.387,6.656,2.558,13.248,4.558,19.762
			c2.216-1.096,4.314-2.408,6.402-3.726c1.635-1.031,1.292-0.962,0.964-2.755c-0.128-0.708-0.291-1.549-0.181-2.261
			c0.532-3.424,4.287-1.674,4.934,0.912c-1.79-7.085-2.013-14.538-4.178-21.527c-1.055-3.405-2.511-6.649-4.164-9.803
			c-0.817-1.557-1.406-2.445-1.531-4.157c-0.116-1.569-0.45-2.88-0.757-4.41c-1.112-5.551,0.041-12.133,0.851-17.662
			c0.218-1.491,1.085-4.022,0.685-5.495c-0.366-1.341-2.409-1.887-1.698-3.646c0.388-0.962,0.637-0.457,1.187-1.017
			c0.203,0.013,0.408,0.026,0.612,0.04c0.048-0.329,0.096-0.657,0.143-0.987c0.619-1.4,0.88-3.491,1.34-5.01
			c0.607,1.825,1.233,3.643,1.828,5.472c0.599-0.293,1.493-0.937,1.788-1.557c0.539-1.134-0.122-0.866-0.199-1.994
			c-0.109-1.581,0.623-3.048,2.655-2.86c-0.973-2.772-1.949-5.539-2.953-8.299c-0.48-1.32-1.102-2.676-1.322-4.043
			c-0.196-1.207,0.053-2.448-0.517-3.598c-0.182-0.368-0.528-0.442-0.711-0.69c-0.141,0.033-0.281,0.066-0.421,0.099
			c-0.199-0.536-0.397-1.073-0.595-1.612c-0.669-1.813-1.333-3.629-2.001-5.442c-5.218-14.155-10.984-27.988-18.558-41.06
			c-0.757,1.217-3.678,3.406-3.769,4.44c-0.108,1.222,2.643,4.672,3.275,5.894c2.057,3.982,3.962,8.061,5.709,12.188
			c3.976,9.393,7.396,18.985,10.797,28.597c0.612,1.734,1.728,3.709,1.331,5.504c-0.342,1.537-1.285,2.656-1.324,4.299
			c-0.045,1.921,0.409,3.387-0.105,5.321c-0.572,2.146-0.913,4.261-0.956,6.502c-0.034,1.765,0.323,3.465,0.247,5.234
			c-0.093,2.103-0.375,4.195-0.511,6.294c-0.294,4.571,0.121,9.176,0.275,13.745c-1.991-4.68-3.037-9.652-4.473-14.51
			c-1.542-5.211-4.604-9.842-6.174-14.943c-2.391-7.769-4.851-14.961-5.247-23.142c-0.145-3.002,0.296-5.968,0.229-8.962
			c-0.06-2.691-0.693-5.224-0.147-7.947c0.194-0.973,0.718-1.899,0.773-2.904c0.06-1.081-0.503-2.035-0.509-3.09
			c-0.015-2.158,1.053-4.159,1.014-6.416c-0.019-1.131-0.056-4.715-1.841-4.584c-1.579,0.115-2.409,4.137-2.719,5.285
			c-0.432,1.586-1.269,3.4-1.452,5.014c-0.125,1.092,0.331,1.934,0.498,2.982c0.212,1.334-0.129,2.122-0.345,3.431
			c-0.507,3.067,0.402,5.809,0.675,8.795c0.251,2.746,0.067,5.499,0.415,8.241c0.364,2.864,0.821,5.749,1.444,8.571
			c0.416,1.885,1.518,3.501,1.647,5.444c-2.126-3.621-4.654-7.026-7.26-10.313c-1.266-1.597-2.613-3.117-4.027-4.585
			c-0.577-0.596-1.919-1.467-2.274-2.241c-0.258-0.563-0.201-2.382-0.253-2.991c-0.114-1.327,0.105-2.698-0.05-4.006
			c-0.192-1.615-1.266-2.732-1.655-4.261c-0.433-1.694-0.129-3.54-0.385-5.277c-0.272-1.853-0.646-3.624-1.216-5.398
			c-1.079-3.36-0.879-6.989-1.223-10.478c-0.397-4.026-0.472-8.204-1.088-12.194c-0.22-1.416-0.753-2.626-0.722-4.085
			c0.039-1.77,0.386-3.466,0.332-5.258c-0.101-3.425,0.456-6.582,0.98-9.95c2.672,4.096,5.296,8.228,7.916,12.358
			c1.125,1.773,2.137,4.551,3.682,5.915c0.226,1.088,0.699,1.273,1.416,0.553c0.397-0.231,0.765-0.501,1.103-0.809
			c0.553-0.46,1.755-1.392,1.892-2.134c0.293-1.601-2.505-4.894-3.517-6.473c-1.259-1.963-2.536-3.913-3.785-5.883
			c-1.627-2.568-3.247-5.139-4.887-7.699c-4.676-7.298-9.624-14.369-14.776-21.336c-1.402-1.896-2.858-3.736-4.333-5.575
			c-1.407-1.758-2.699-3.861-4.34-5.401c-1.308-1.229-0.531-1.053-2.094-0.635c-1.546,0.412-3.106,1.29-4.587,1.905
			C413.405,368.117,414.295,369.124,415.167,370.143z M393.215,437.941c0,0.348-0.081,0.408-0.242,0.181
			c0.345-0.47,0.441-0.847,0.624-1.463C394.376,437.41,393.885,437.59,393.215,437.941z"/>
		<path d="M337.665,345.141c1.72,0.019,3.122-0.708,4.8-0.823c-1.756-0.567-3.509-1.237-5.321-1.611
			c4.832-9.415,17.826-12.685,27.516-11.23c10.477,1.573,19.766,8.035,27.57,14.85c2.256,1.97,4.449,4.018,6.571,6.131
			c0.81,0.806,1.608,1.624,2.404,2.446c1.357,1.401,1.257,1.283,1.278,2.942c0.032,2.607-0.924,4.994-1.169,7.569
			c-0.195,2.043,0.07,4.029-0.054,6.058c-0.138,2.241-0.23,3.777,0.047,5.989c0.121,0.969,0.055,1.913,0.023,2.89
			c-0.179,5.345-0.697,10.823-0.426,16.164c-1.739-3.579-4.457-6.9-7.223-9.724c-1.6-1.634-2.934-3.427-4.349-5.223
			c-0.977-1.237-1.234-1.521-2.558-1.975c-1.312-0.451-2.901-0.496-4.262-0.841c2.817,3.785,5.291,7.834,8.466,11.327
			c1.235,1.359,2.783,2.834,3.682,4.351c0.702,1.183,1.54,3.07,2.218,4.473c0.913,1.889,1.636,3.552,3.035,5.141
			c1,1.134,1.516,1.787,2.002,3.054c0.574,1.494,1.332,3.209,1.523,4.829c0.255,2.153,0.238,3.602,1.06,5.689
			c-4.582-4.915-9.326-9.661-14.484-13.974c-2.687-2.246-5.452-4.397-8.223-6.542c-2.245-1.739-4.848-2.802-7.132-4.467
			c-2.83-2.062-5.375-4.189-8.413-5.962c-2.628-1.534-5.249-3.15-7.812-4.789c-2.269-1.451-4.31-3.012-6.827-4.045
			c-2.648-1.087-6.017-2.877-8.913-2.984c-2.224-0.081-2.141,1.133-0.634,2.415c2.112,1.8,5.076,2.803,7.6,3.849
			c5.621,2.329,10.78,6.027,16.186,8.846c2.721,1.417,4.92,3.362,7.432,5.082c1.976,1.352,4.211,2.233,6.136,3.665
			c4.789,3.568,9.255,7.844,13.437,12.097c2.077,2.113,4.007,4.369,5.975,6.581c2.2,2.475,4.607,4.592,6.906,6.95
			c4.158,4.265,6.857,9.423,11.175,13.497c1.738,1.638,2.863,3.709,4.057,5.76c0.667,1.145,1.152,2.436,1.911,3.537
			c0.879,1.28,1.363,1.077,2.321,1.674c1.171,0.729,3.594,4.462,5.326,4.214c1.895-0.272-0.244-3.652-0.723-4.535
			c-1.188-2.195-3.069-4.296-4.028-6.569c-0.776-1.836,0.088-3.946-0.612-5.833c-0.495-1.333-1.337-2.12-1.529-3.573
			c-0.165-1.253-0.009-2.49-0.221-3.756c-0.56-3.355-1.821-6.363-2.145-9.766c-0.509-5.34-0.574-11.041-1.715-16.276
			c-1.112-5.106-0.035-10.951,1.204-15.98c0.339-1.379,1.294-6.289,0.363-7.547c-1.799-2.429-3.396,1.964-3.649,3.394
			c-0.565,3.188-1.206,6.539-1.239,9.784c-0.025,2.592-0.151,5.389,0.001,7.955c0.109,1.841,0.828,3.511,0.879,5.388
			c0.086,3.22,0.1,6.598,0.577,9.671c0.081,0.089,0.161,0.179,0.241,0.269c0.577,0.469,0.567,0.814-0.028,1.034
			c-0.489,0.184-0.638,0.543-0.447,1.076c-0.022,0.427-0.019,0.854,0.006,1.279c0.026,1.592-0.034,3.338,0.314,4.892
			c0.7,3.123,1.417,5.968,1.245,9.212c-2.544-2.061-3.906-4.998-6.063-7.413c-1.241-1.387-2.858-2.708-3.905-4.245
			c-0.778-1.141-0.468-0.546-0.484-1.927c-0.007-0.693,0.067-1.37,0.009-2.069c0.548,0.681,3.612,4.781,4.712,3.288
			c0.285-0.387-0.291-2.263-0.417-2.708c-0.394-1.386-1.092-2.734-1.675-4.045c-0.49-1.101-1.013-3.044-1.879-3.904
			c-0.693-0.689-1.599-0.442-2.533-1.307c-2.024-1.875-3.078-5.292-4.749-7.533c1.439-0.102,2.909-0.06,4.331,0.195
			c-0.646-3.836-1.61-7.174-1.701-11.121c-0.089-3.904-0.263-7.887-0.536-11.784c-0.079-1.119-0.511-2.186-0.569-3.294
			c-0.078-1.522,0.587-3.054,0.694-4.576c0.118-1.676,0.171-3.294,0.479-4.958c0.354-1.901,1.343-3.76,1.4-5.694
			c1.298,1.343,2.547,2.732,3.783,4.134c-0.009-0.118,5.714-2.193,6.167-1.972c-12.056-14.118-25.891-29.85-44.038-35.917
			c-16.918-5.656-40.185,0.847-44.256,20.299c0.9-1.335,2.934-1.365,4.348-1.429C333.976,345.077,335.821,345.121,337.665,345.141z"
			/>
		<path d="M492.555,771.354c-0.648,1.787-0.859,4.725,0.899,5.935c1.751,1.207,4.798,0.656,6.791,0.826
			c-1.395-1.344-2.792-2.713-4.301-3.93C494.829,773.225,493.696,772.285,492.555,771.354z"/>
		<path d="M536.312,894.951c0.593,1.439,1.258,3.203,2.446,4.26c1.437,1.277,2.374,1.217,2.091-0.817
			c-0.258-1.842-0.776-4.327,0.177-6.052c0.465-0.841,1.538-1.112,1.955-1.737c0.503-0.754,0.438-1.493,0.394-2.643
			c-0.168-4.486-0.526-8.982-0.967-13.45c2.773,4.186,6.425,11.898,11.741,13.315c5.824,1.553,3.074-7.011,2.113-9.469
			c-2.755-7.05-6.941-12.966-10.67-19.475c-1.57-2.741-2.724-5.653-3.865-8.59c-0.691-1.777-1.456-3.523-2.154-5.294
			c-0.896-2.27-0.697-4.289-0.652-6.727c0.267-14.686-0.408-29.517-0.82-44.203c-0.22-7.828-0.519-15.588,0.361-23.393
			c0.402-3.567,0.582-7.391,1.855-10.749c0.906-2.393,1.728-4.817,2.536-7.244c9.578-28.821,17.405-58.273,28.01-86.738
			c10.684-28.671,22.647-56.938,34.831-84.997c7.202-16.585,14.438-33.249,22.904-49.236c7.988-15.087,16.684-29.927,24.69-45.104
			c-1.255-0.241-4.182-1.441-5.32-1.024c-1.003,0.368-2.072,3.222-2.648,4.268c-1.009,1.828-2.034,3.649-3.046,5.476
			c-4.284,7.738-8.758,15.367-13.02,23.117c-1.043,1.893-1.961,4.002-3.178,5.79c-0.863,1.27-1.844,1.864-3.086,2.851
			c-1.422,1.128-2.964,1.701-4.385,2.751c-0.766,0.566-1.236,1.338-2.06,1.829c-3.467,2.068-7.542,2.56-11.341,3.605
			c-2.965,0.816-4.887,1.858-8.054,1.811c1.675-6.639,2.574-13.576,5.279-19.911c1.242-2.909,2.759-5.696,4.218-8.5
			c0.528-1.014,1.683-4.662,2.623-5.173c0.286-0.156,1.64,0.206,2.034,0.134c0.686-0.124,1.159-0.477,1.757-0.793
			c2.587-1.373,5.599-1.076,8.289-2.535c3.209-1.739,6.688-2.946,9.887-4.744c5.247-2.947,9.519-6.87,14.243-10.458
			c-0.9-0.173-2.025-0.599-2.925-0.563c-1.204,0.048-1.487,0.539-2.632,1.296c-2.062,1.365-3.378,3.174-5.548,4.394
			c-1.93,1.086-3.911,2.099-5.973,2.911c-2.237,0.883-4.741,1.196-6.939,2.148c-1.678,0.727-3.045,1.613-4.894,1.949
			c-1.634,0.297-3.437-0.192-4.901,0.723c1.326-3.534,2.605-7.087,3.848-10.651c0.603-1.731,1.202-3.463,1.791-5.199
			c0.369-1.085,0.849-4.244,1.695-4.896c0.664-0.512,2.481-0.039,3.252-0.121c1.658-0.178,2.423-1.147,3.835-1.809
			c1.42-0.666,3.058-0.488,4.552-0.935c1.53-0.458,3.055-1.048,4.448-1.819c6.002-3.322,12.443-5.377,18.126-9.45
			c1.153-0.825,1.905-1.818,2.939-2.757c1.122-1.019,2.56-1.551,3.771-2.449c1.994-1.475,3.797-3.462,5.615-5.155
			c-3.058,5.02-5.861,10.201-8.667,15.365c-0.737,1.358-1.472,2.718-2.206,4.079c-0.378,0.7-0.935,2.549-1.543,2.899
			c-0.505-0.236-1.007-0.217-1.505,0.053c-0.487,0.246-0.938,0.543-1.352,0.893c-0.764,0.629-1.295,1.401-1.895,2.178
			c1.384-0.548,1.711,0.361,2.544,1.14c1.225,1.146-0.494,0.712,1.642,0.776c1.232,0.036,3.035-0.783,3.761,0.702
			c10.03-19.478,21.868-37.462,33.365-56.052c8.045-13.007,15.623-27.167,17.394-42.596c1.607-13.984-1.93-29.655-11.942-39.977
			c-12.358-12.742-30.843-12.609-46.316-6.105c0.561,0.992,0.85,2.092,0.912,3.223c-1.115-0.413-3.219-0.854-2.63-2.471
			c-20.062,9.076-35.586,26.372-48.893,43.421c1.005,0.257,1.553,1.003,0.862,2.015c-0.392,0.576-1.122,0.536-1.75,0.689
			c-1.174,0.288-1.3,0.328-2.139,1.209c-2.497,2.618-4.483,6.385-6.428,9.432c-4.028,6.305-7.604,12.896-11.148,19.482
			c-7.401,13.752-14.055,27.952-19.619,42.547c-10.734,28.149-19.522,56.899-22.301,86.987c-2.628,28.456-6.03,56.861-6.134,85.464
			c-0.096,26.115,0.374,53.01,4.598,78.842c0.248,1.518,0.644,3.001,0.922,4.508c0.517,2.787-0.379,5.905-0.776,8.742
			c-1.194,8.54-1.54,16.751-1.581,25.368c-0.039,8.39-1.795,16.592-2.911,24.875c-1.166,8.661-0.978,17.32-1.133,26.031
			c-2.338-11.249-4.696-22.463-7.267-33.659c-0.511-2.227-1.69-5.461-1.054-7.585c0.682-2.283,1.724-4.399,2.274-6.766
			c1.139-4.901,1.589-9.895,1.973-14.902c0.839-10.91-0.882-21.731-1.188-32.626c-0.331-11.78-0.787-23.251-2.327-34.955
			c-1.507-11.458-3.509-22.721-5.7-34.061c-2.189-11.331-2.516-22.843-4.353-34.212c-0.919-5.689-2.906-11.18-3.601-16.89
			c-0.685-5.629-1.44-11.252-2.347-16.849c-1.357-8.377-1.821-16.876-2.196-25.352c-0.082-1.842,0.318-5.151-0.307-6.853
			c-0.224-0.609-0.9-0.961-1.297-1.57c-0.815-1.251-0.93-3.04-0.948-4.49c-0.018-1.483,0.062-2.606,0.791-3.772
			c0.223-0.356,1.033-0.464,1.2-0.798c0.231-0.465-0.013-1.724-0.015-2.255c-0.022-6.641,0.118-13.28,0.352-19.917
			c0.114-3.196,0.221-6.398,0.413-9.592c0.195-3.258,1.069-6.799,0.455-10.003c1.079-0.007,1.631-11.723,1.801-13.439
			c0.222-2.224,0.46-4.448,0.706-6.67c0.185-1.653,0.265-1.936,1.306-3.11c0.632-0.714,1.343-1.302,1.901-2.087
			c1.183-1.66,1.767-3.669,2.934-5.34c1.172-1.677,2.841-2.891,4.227-4.377c2.727-2.925,5.047-6.978,6.748-10.591
			c0.921-1.952,1.538-4.066,2.724-5.885c1.158-1.777,2.81-3.154,4.068-4.851c2.164-2.915,1.761-6.693,3.699-9.734
			c4.732-7.422,9.715-15.627,15.625-22.16c-0.896,0.044-1.115,0.223-0.654,0.537c-0.141-0.045-0.28-0.088-0.422-0.132
			c-0.981,0.216-1.375-4.317,0.151-5.179c2.206-1.245,2.972,1.332,2.451,3.007c2.58-3.215,6.071-6.977,7.27-10.976
			c1.337-4.461,3.435-8.701,6.267-12.467c4.374-5.815,11.073-9.183,16.082-14.272c1.431-1.452,2.223-3.324,3.547-4.798
			c1.406-1.565,3.171-2.981,4.745-4.378c1.567-1.391,3.59-2.621,4.89-4.292c1.239-1.592,2.041-3.305,3.589-4.707
			c1.273-1.153,2.22-1.597,3.009-3.171c0.807-1.612,1.787-2.252,2.89-3.667c1.294-1.66,3.422-8.189-0.7-5.669
			c-1.466,0.898-2.484,2.419-3.766,3.527c-0.634,0.549-1.529,0.944-2.051,1.605c-0.751,0.948-0.601,2.234-1.303,3.204
			c-1.112,1.533-2.888,2.497-3.942,4.205c-1.301,2.103-2.298,3.9-4.202,5.593c3.856-8.665,10.047-16.208,14.285-24.771
			c4.314-8.718,9.081-18.148,10.995-27.751c0.404-2.032,0.632-4.111,0.47-6.182c-0.168-2.165-1.008-2.997,0.365-4.734
			c2.159-2.734,4.519-4.952,6.125-7.961c0.688-1.29,1.878-1.76,2.682-2.8c0.639-0.827,0.424-1.699,0.892-2.533
			c0.345-0.615,1.097-0.926,1.505-1.518c0.56-0.817,1.108-2.497,0.668-3.442c-1.038-2.225-3.254-0.171-4.385,0.926
			c-0.598,0.578-2.194,1.627-2.55,2.259c-0.402,0.716-0.034,1.492-0.381,2.197c-0.329,0.669-1.19,1.164-1.653,1.797
			c-1.132,1.549-1.18,3.303-2.362,4.87c-1.125,1.49-2.051,3.005-3.013,4.611c-3.683-5.264-10.727-6.699-16.34-3.882
			c2.151-4.601,5.249-8.599,7.401-13.13c0.851-1.794,2.11-3.348,3.559-4.671c1.417-1.292,1.436-2.877,2.552-4.267
			c1.089-1.36,7.304-6.485,4.156-8.338c-1.591-0.937-7.131,4.219-8.24,5.528c-1.172,1.382-1.138,3.157-2.358,4.538
			c-1.664,1.882-2.915,3.639-3.742,6.059c-0.808,2.371-2.186,4.38-3.35,6.599c-1.221,2.331-2.096,4.845-2.977,7.32
			c-0.754,2.121-1.211,3.116-2.781,4.732c-1.863,1.917-3.482,4.1-5.088,6.233c-3.192,4.239-6.152,8.65-8.932,13.169
			c-6.313,10.261-11.554,21.384-15.814,32.645c-0.525-6.371,1.979-12.765,3.908-18.648c0.798-2.434,1.053-4.792,2.252-7.126
			c1.008-1.963,2.413-3.35,3.078-5.487c1.149-3.692,4.988-6.12,5.544-10.207c0.708-5.208-5.807,1.985-6.75,3.036
			c-0.914,1.018-2.126,1.946-2.79,3.161c-1.044,1.917-1.027,3.878-2.252,5.801c-2.467,3.872-2.775,8.679-3.939,13.035
			c-0.787,2.947-2.914,8.643-0.833,11.191c-1.221,0-0.935,1.218-0.961,2.346c-0.029,1.288-0.074,2.615,0.163,3.882
			c0.888,4.725-0.514,8.71-1.169,13.423c-0.308,2.224-0.507,4.37,0.413,6.483c0.498,1.141,1.044,1.788,1.202,3.02
			c0.154,1.189,0.141,2.849-0.25,3.987c-0.716,2.094-2.79,3.526-4.146,5.168c-1.58,1.912-2.509,4.352-3.589,6.571
			c-1.031,2.116-1.894,3.935-2.163,6.294c-0.11,0.97,0.151,2.069-0.045,2.974c-0.25,1.152-0.922,1.15-1.598,1.911
			c-1.454,1.639-3.04,4.631-3.972,6.618c-0.495,1.055-0.458,0.755-0.468,1.668c-0.017,1.44,0.657,2.154,0.012,3.635
			c-0.827,1.9-2.472,2.789-4.181,3.624c-1.313,0.641-0.427-0.156-1.26,0.726c-0.331,0.35-0.57,0.989-0.806,1.409
			c-0.706,1.262-1.373,2.544-2.034,3.83c-2.235,4.347-5.989,8.92-7.137,13.669c-0.61,2.525-0.862,4.631-2.686,6.622
			c-1.872,2.043-3.825,3.602-5.255,6.033c-2.454,4.167-5.032,8.37-8.515,11.799c0.487-6.797,0.228-13.624,0.759-20.417
			c0.539-6.921,1.678-13.83,2.568-20.714c0.909-7.028,2.096-13.761,4.071-20.578c1.924-6.634,3.773-13.243,4.379-20.152
			c0.494-5.627,0.459-11.304,1.128-16.914c0.741-6.207,2.751-12.094,4.486-18.071c1.904-6.554,3.001-13.195,4.056-19.927
			c0.25-1.598,0.206-4.061,0.832-5.544c0.513-1.219-0.248-0.504,0.975-1.287c0.376-0.242,1.136-0.364,1.587-0.549
			c2.585-1.069,4.846-2.921,6.294-5.325c1.809-3.001,2.62-6.815,3.621-10.144c1.231-4.099,2.331-8.239,3.298-12.408
			c1.848-7.964,3.213-16.039,4.112-24.164c1.737-2.691-0.411,0.579-0.481,0.711c-0.296-0.379-0.59-0.76-0.885-1.142
			c0.37-0.225,1.109-0.943,1.469-0.474c1.545-14.524,3.58-38.915-16.917-39.751c0.276-2.475,0.716-4.823,1.436-7.197
			c0.443-1.459,0.277-2.338,0.331-3.757c0.061-1.634,1.304-2.803,1.409-4.325c0.037-0.539-0.432-0.992-0.362-1.589
			c0.069-0.593,0.599-0.975,0.747-1.535c0.188-0.719,0.184-1.657-0.024-2.335c-1.289-4.229-3.918,0.641-4.751,2.266
			c-0.284,0.557-0.981,1.258-1.048,1.857c-0.074,0.659,0.356,0.858,0.409,1.425c0.081,0.869-0.184,1.092-0.391,1.902
			c-0.599,2.35,0.047,4.581-0.285,6.998c-0.183,1.341-0.232,2.623-0.23,3.983c0,0.538,0.214,1.467,0.008,1.941
			c-0.307,0.714-0.182,0.143-0.995,0.527c-1.316,0.623-3.008,0.633-4.391,1.273c-1.53,0.708-2.929,1.691-4.129,2.873
			c0.139-1.149-0.641-2.012-0.817-3.098c-0.289-1.785,0.05-4.125,0.344-5.903c0.311-1.883,0.553-3.394,0.544-5.241
			c-0.008-2.104,0.874-3.897,0.844-5.826c-0.019-1.282,0.615-2.298,0.643-3.638c0.061-2.912-2.171-3.981-3.819-1.348
			c-0.509,0.813-1.644,3.04-1.867,4.065c-0.237,1.092,0.42,1.227,0.487,2.233c0.063,0.956-0.527,1.845-0.653,2.792
			c-0.241,1.811,0.593,3.332,0.46,5.146c-0.161,2.187-0.09,4.207,0.13,6.396c0.187,1.859,0.727,3.381,0.815,5.153
			c0.032,0.672,0.315,2.026,0.207,2.677c-0.162,0.986-1.218,2.239-1.617,3.179c-3.73,8.773-3.681,19.049-3.679,28.422
			c0.003,6.287,0.311,12.59,1.246,18.812c0.44,2.927,1.018,5.834,1.777,8.695c0.383,1.445,1.273,3.296,1.092,4.71
			c-0.183,1.439-1.104,3.05-1.618,4.41c-0.961-1.769-1.879-3.18-2.555-5.096c-0.541-1.537-1.587-2.634-2.216-4.098
			c-1.773-4.125-2.099-9.28-2.178-13.693c-0.046-2.565-0.645-5.012-0.629-7.546c0.015-2.408,1.017-4.478,0.694-6.841
			c-0.265-1.937,0.348-2.99,0.735-4.887c0.263-1.29,0.729-5.155-0.495-6.164c-2.427-1.999-5.256,7.141-5.496,9.065
			c-0.129,1.044,0.327,1.856,0.469,2.842c0.201,1.414-0.205,2.337-0.386,3.747c-0.361,2.792,0.64,5.219,1.05,7.893
			c0.862,5.603,1.327,11.157,3.641,16.445c0.693,1.583,1.751,2.723,2.248,4.417c0.712,2.43,1.802,4.502,2.858,6.806
			c0.945,2.063,0.427,4,1.17,6.167c0.355,1.038,0.887,2.005,1.516,2.899c0.329,0.466,1.023,0.97,1.207,1.476
			c0.308,0.851,0.001,1.6-0.246,2.571c-1.461,5.721-2.618,11.522-4.126,17.229c-2.659,10.07-6.453,19.487-7.151,29.992
			c-0.377,5.649-0.201,11.335-0.762,16.972c-0.519,5.215-2.001,10.316-3.312,15.372c-2.867,11.052-3.836,22.214-4.953,33.55
			c-1.302,13.195-0.637,26.382-1.794,39.576c-1.217,13.864-2.394,27.79-3.023,41.695c0.828-0.427,1.655-0.854,2.482-1.28
			c0.025,1.189,0.269,6.83-2.617,4.985c-0.086,5.963-0.104,11.93,0.002,17.893c-1.496-5.122-3.127-10.231-4.898-15.264
			c-0.582,0.989-0.438,2.746-0.765,3.908c-0.345,1.225-0.639,2.697-1.25,3.82c-0.161,0.294-1.42,1.505-1.442,1.638
			c-0.051,0.281,0.387,1.256,0.496,1.609c0.644,2.104,1.262,4.214,1.852,6.334c2.133,7.679,3.977,15.433,5.683,23.218
			c1.5,6.845,2.525,13.429,3.234,20.385c0.841,8.254,1.444,16.701,3.068,24.842c0.714,3.586,1.745,7.096,2.508,10.667
			c0.86,4.033,1.027,8.279,1.535,12.377c0.993,8.005,2.011,16.008,3.007,24.012c1.864,14.98,2.978,30.056,4.977,45.019
			c0.344,2.577,0.708,5.162,1.246,7.708c0.803,3.803,0.722,7.721,0.676,11.605c-0.113,9.342,0.209,18.487,0.934,27.797
			c-1.743-7.249-2.211-14.962-3.134-22.333c-1.403-11.213-2.775-22.429-4.143-33.646c-1.382-11.326-2.503-22.716-4.071-34.013
			c-0.731-5.272-1.417-10.551-2.237-15.811c-0.404-2.599-0.811-5.204-1.328-7.783c-0.257-1.277-0.387-3.363-1.093-4.472
			c-0.567-0.889-1.761-1.478-2.404-2.374c-0.446,0.161-0.498,1.467-0.567,1.85c-1.217-0.32-4.997-1.854-3.074-3.707
			c1.874-1.803,2.827,2.144,3.64,1.855c-0.8-1.112-0.283-1.583-0.042-2.689c0.208-0.96,0.496-0.588,0.291-1.737
			c-0.116-0.643-0.441-1.311-0.646-1.933c-1.004-3.051-1.736-6.122-2.451-9.249c-1.405-6.144-2.95-12.245-4.495-18.355
			c0.702,2.833,0.162,6.374,0.126,9.271c-0.03,2.423,0.689,6.528-1.802,8.023c-1.392,0.835-4.383,0.978-5.666-0.102
			c-1.586-1.337-0.881-4.377-3.477-4.84c1.765,6.496,3.258,13.114,5.623,19.424c2.629,7.009,4.475,13.835,5.888,21.186
			c-4.047-9.101-8.209-18.161-12.464-27.167c-1.196-2.53-2.402-5.052-3.628-7.567c-0.568-1.168-1.09-3.008-1.944-3.976
			c-0.928-1.051,0.134-0.831-1.336-0.865c-0.994-0.023-4.993,2.107-5.539-0.033c-0.578-2.271,3.711-2.944,4.901-3.137
			c-7.932-16.221-15.098-33.059-24.581-48.458c-5.461-8.866-11.501-17.342-17.335-25.963c-5.589-8.259-10.47-16.985-15.709-25.466
			c2.219,2.5,5.018,3.395,7.666,5.209c3.527,2.414,6.865,5.209,10.34,7.722c1.234,0.891,2.372,1.364,3.664,2.079
			c1.221,0.675,1.897,1.758,2.904,2.673c1.53,1.391,3.333,2.404,4.784,3.919c1.236,1.291,2.089,2.532,3.608,3.496
			c0.973,0.615,2.984,2.454,4.227,1.827c1.414-0.716,0.719-2.053,0.032-3.007c-0.847-1.175-2.063-1.66-3.147-2.545
			c-1.463-1.198-2.561-2.616-4.131-3.735c-4.744-3.381-9.435-6.231-13.884-10.049c-3.001-2.575-5.527-5.412-8.894-7.448
			c-1.414-0.853-2.844-1.996-3.947-3.225c-1.351-1.504-1.826-1.814-3.67-2.657c-1.415-0.646-2.018-1.854-3.226-2.792
			c-0.808-0.626-1.972-0.866-2.725-1.512c-1.534-1.314-2.748-3.937-3.942-5.599c-1.322-1.842-2.64-3.688-3.97-5.526
			c-10.5-14.512-21.897-28.292-33.691-41.759c-6.567-7.498-12.743-15.142-17.653-23.849c-2.339-4.146-4.438-8.441-6.07-12.918
			c-0.776-2.128-1.463-4.292-2.055-6.479c-0.32-1.183-1.044-6.769-1.99-6.78c0.157-1.551,0.108-2.91,0.012-4.462
			c-0.048-0.76-0.073-1.519-0.077-2.279c0.385-0.934,0.182-1.32-0.607-1.159c-0.907-0.512-3.295-0.193-4.347-0.253
			c-1.789-0.105-2.482,0.361-2.55-1.528c-2.017,25.585,14.784,48.972,30.572,67.265c1.221-1.349,2.075-0.695,3.267,0.291
			c0.321,0.266,2.552,1.902,2.593,2.22c0.001,0.012-1.01,1.668-1.016,1.684c-0.389,1.467-0.101,1.314,0.995,2.609
			c0.73,0.863,1.458,1.728,2.178,2.599c1.737,2.105,3.43,4.246,5.107,6.398c5.746,7.379,11.44,14.793,16.907,22.385
			c11.095,15.407,19.885,32.169,30.278,48.021c8.706,13.281,17.657,26.156,24.798,40.379c8.54,17.015,17.191,33.912,26.11,50.735
			c4.395,8.291,8.857,16.538,13.482,24.704c2.318,4.095,4.665,8.175,7.091,12.208c1.21,2.009,2.083,3.378,2.408,5.736
			c0.385,2.794,0.745,5.591,1.191,8.376c2.197-0.733,2.271-0.444,4.236-2.003c0,0.65,0,1.298,0,1.948
			c-0.434,0.017-0.866,0.056-1.295,0.118c-0.41,0.504-0.924,1.453-1.388,2.256c-0.74,1.281-0.82-0.011-0.826,2.019
			c-0.004,1.112,0.443,2.558,0.632,3.654c0.905,5.23,1.772,10.463,2.65,15.696c1.744,10.406,3.493,20.805,5.134,31.226
			c1.428,9.076,2.935,17.825,5.418,26.68c2.744,9.786,2.372,19.862,3.767,29.854c-3.888-7.596-7.094-15.142-10.022-23.155
			c-2.913-7.972-6.774-15.582-10.441-23.229c0.194,1.542-0.704,0.753-1.767,0.554c-1.378-0.256-1.669-0.026-2.036-1.305
			c-0.415-1.448,0.776-3.054,2.384-2.205c-5.018-10.468-10.981-20.252-15.405-31.026c-2.19-5.336-4.505-10.476-7.706-15.294
			c-2.926-4.402-6.07-8.574-8.438-13.319c-9.75-19.528-19.743-38.914-30.373-57.981c-3.245-5.82-6.172-11.786-9.517-17.553
			c-1.753-3.022-3.5-6.049-5.285-9.052c-0.779-1.311-1.565-2.617-2.362-3.917c-0.399-0.65-0.801-1.298-1.204-1.944
			c-0.623-0.993-0.703-2.104-1.949-1.56c-0.048-3.399-3.66-6.633-5.784-9.123c-2.682-3.145-5.525-6.124-7.944-9.486
			c-4.749-6.595-9.884-12.939-14.543-19.589c-0.525,2.029-1.911,4.002-2.902,5.852c-0.566,1.055-1.301,2.706-2.486,3.258
			c-2.388,1.112-6.218-2.054-7.692-3.673c-1.136-1.247-1.056-2.101-0.409-3.648c0.863-2.064,2.541-3.243,2.809-5.466
			c0.358-2.951,3.067-3.565,5.82-3.932c-1.953-3.122-3.938-6.209-6.401-8.959c-1.117-1.246-2.293-2.421-3.526-3.549
			c-1.076-0.983-3.472-2.244-4.142-3.509c-0.496-0.941-0.008-2.647-0.598-3.786c-0.678-1.308-1.979-2.142-2.59-3.501
			c-0.661-1.469-0.499-3.155-1.149-4.646c-0.688-1.578-1.689-3.215-2.667-4.639c-0.842-1.226-2.077-2.145-2.877-3.389
			c-0.962-1.495-0.738-3.234-1.477-4.776c-1.095-2.283-3.662-2.839-4.641-5.267c-2.789-6.915-4.052-13.946-5.274-21.22
			c-0.343-2.043-0.615-3.359-1.892-4.971c-0.866-1.094-1.316-1.773-1.702-3.132c-0.709-2.487,1.411-5.492,1.837-8.162
			c1.091-6.829-0.302-13.984-2.004-20.597c-1.875-7.29-4.706-14.237-8.676-20.645c-0.939-1.514-1.932-2.991-2.98-4.432
			c-0.781-1.07-2.321-2.344-2.67-3.499c-0.323-1.068,0.121-2.562,0.235-3.639c0.171-1.599-0.196-2.694-0.344-4.202
			c-0.079-0.807,0.081-1.609,0.204-2.399c0.192-1.238,0.176-1.555,0.053-2.649c-0.124-1.104,0.209-1.903,0.249-3.037
			c0.037-1.052-0.474-3.103-1.707-3.41c-1.593-0.397-2.266,1.705-2.612,2.808c-0.255,0.817-0.55,1.837-0.75,2.681
			c-0.391,1.646,0.458,1.938,0.504,3.544c0.043,1.512-0.384,2.681,0.004,4.317c0.358,1.501,0.708,2.727,0.655,4.391
			c-2.535-0.871-5.36-0.73-7.773,0.451c-0.593-2.569-0.652-5.127-1.144-7.685c-0.194-1.011-0.674-1.729-0.966-2.688
			c-0.43-1.404,0.136-2.782-0.059-4.074c-0.162-1.065-0.931-1.649-1.122-2.646c-0.129-0.675,0.284-1.466,0.22-2.173
			c-0.155-1.668-1.797-4.787-3.62-3.009c-1.193,1.163-0.798,3.533-0.969,5.04c-0.097,0.869-0.52,1.608-0.173,2.476
			c0.188,0.469,0.798,0.719,0.99,1.171c0.318,0.748-0.03,1.129,0.052,1.903c0.242,2.285,1.472,3.85,2.019,5.989
			c0.305,1.194,0.468,2.397,0.827,3.575c0.272,0.898,1.455,2.783,1.362,3.679c-0.07,0.687-1.702,2.077-2.106,2.926
			c-0.512,1.073-0.68,2.167-0.634,3.346c0.116,3.048,0.771,6.182,1.333,9.172c1.185,6.284,2.926,12.492,5.514,18.348
			c1.057,2.393,3.237,4.999,3.946,7.46c0.419,1.45-0.026,3.842,0.004,5.38c0.038,1.976,0.081,4.014,0.438,5.961
			c0.485,2.667,1.959,4.551,4.309,5.902c0.728,0.418,1.992,0.658,2.513,1.181c0.781,0.781,1.07,2.763,1.521,3.77
			c1.198,2.669,3.555,3.784,4.507,6.611c1.074,3.19,1.799,6.486,3.223,9.53c1.467,3.13,3.149,6.139,4.697,9.227
			c0.813,1.62,1.299,2.825,2.779,3.908c1.802,1.316,2.488,1.924,2.668,4.224c-3.302-3.81-7.221-7.13-11.127-10.305
			c-2.128-1.73-4.273-3.442-6.442-5.121c-1.149-0.888-2.315-1.743-3.513-2.563c-0.789-0.539-2.941-1.439-3.407-2.241
			c-0.338-0.581-0.285-2.748-0.364-3.427c-0.178-1.52-0.377-3.038-0.597-4.554c-0.387-2.647-0.841-5.285-1.367-7.908
			c-1.126-5.618-2.59-11.169-4.432-16.596c-1.788-5.27-3.826-10.572-6.253-15.582c-1.101-2.267-2.398-4.006-2.702-6.451
			c-0.192-1.542-0.76-3.313-1.066-4.807c-0.266-1.301-0.872-1.974-0.96-3.323c-0.112-1.698,0.075-3.487,0.402-5.147
			c0.356-1.813,0.364-2.894,0.34-4.637c-0.018-1.297,0.933-2.192,1.111-3.297c0.16-0.991-0.279-1.185-0.328-2.067
			c-0.552,0.849-1.516,1.694-2.374,2.228c-0.779,0.485-2.07,0.506-2.516,1.088c-0.947,1.239,0.184,3.469,0.3,4.75
			c0.182,2.014-0.214,3.982,0.043,6.036c0.272,2.159,1.212,3.894,1.048,5.983c-1.254-1.142-2.667-2.121-4.177-2.895
			c-1.158-0.594-4.21-1.124-4.753-2.008c-1.346-2.188-0.176-6.505-0.303-8.93c-0.063-1.191-0.469-2.204-0.584-3.386
			c-0.129-1.311,0.472-2.184,0.541-3.371c0.085-1.48-0.593-2.259-0.36-3.793c0.143-0.944,0.271-1.385,0.052-2.367
			c-0.969-4.322-3.584-2.014-4.328,0.917c-0.199,0.779-0.415,1.565-0.608,2.34c-0.429,1.73,0.111,1.493,0.497,3.07
			c0.238,0.971-0.277,2.058-0.255,3.068c0.033,1.539,0.669,2.247,1.058,3.624c0.409,1.448,0.195,3.161,0.402,4.652
			c0.195,1.39,0.618,2.754,0.954,4.112c-2.916-0.143-5.852,0.428-8.491,1.685c-0.198-1.504-0.004-3.002-0.078-4.51
			c-0.068-1.39-0.533-2.563-0.517-3.961c0.015-1.177,0.446-1.816,0.659-2.896c0.323-1.629-0.236-2.629,0.289-4.237
			c0.474-1.446,1.311-4.513-0.511-5.395c-2.124-1.027-3.371,3.097-3.947,4.371c-0.375,0.83-1.055,1.649-1.074,2.584
			c-0.029,1.374,0.565,2.153,0.348,3.592c-0.444,2.939,0.648,5.138,0.98,8.013c0.105,0.901,1.01,3.545,0.765,4.313
			c-0.299,0.936-2.65,2.524-3.272,3.485c-1.802,2.785-2.336,6.136-2.105,9.4c-2.015,0.039-4.025-3.17-4.906-4.515
			c-0.858-1.313-1.808-2.123-2.711-3.277c-0.78-0.998-0.581-2.131-1.23-3.121c-0.128-0.197-0.633-0.125-0.774-0.328
			c-0.302-0.434-0.244-0.761-0.482-1.244c-0.392-0.802-0.28-1.423-1.215-2.005c-2.263-1.405-3.016,1.264-2.803,3.048
			c0.064,0.541,0.248,2.574,0.47,3.04c0.338,0.714,0.737,0.511,1.229,1.025c0.629,0.66,0.718,1.288,1.207,2.127
			c0.675,1.159,1.55,1.185,2.498,1.891c0.798,0.591,1.289,1.624,1.996,2.322c0.98,0.968,2.145,1.724,3.299,2.47
			c1.58,1.019,3.258,0.796,4.055,2.672c1.02,2.403,1.475,5.127,2.479,7.577c3.739,9.127,8.478,18.764,14.438,26.638
			c1.538,2.031,3.208,3.966,4.896,5.872c0.749,0.843,2.004,1.821,2.557,2.82c0.378,0.682,0.397,1.769,0.665,2.56
			c1.265,3.726,4.422,6.505,8.229,7.419c1.873,0.449,3.818,0.451,5.69-0.004c1.132-0.275,2.188-1.004,3.106-0.655
			c0.888,0.337,2.127,2.146,2.832,2.869c3.755,3.848,7.514,7.705,11.232,11.591c6.511,6.807,11.34,15.084,18.549,21.221
			c3.968,3.378,8.488,6.073,12.249,9.709c3.677,3.555,6.27,8.064,9.121,12.266c3.431,5.055,7.455,9.6,11.222,14.398
			c3.618,4.607,7.075,9.424,11.081,13.703c4.259,4.549,8.296,8.96,11.781,14.143c3.65,5.43,7.184,10.937,10.651,16.485
			c-4.909-1.482-9.813-0.854-14.656-2.858c-4.543-1.881-9.333-2.821-14.086-4.045c1.086,1.189,2.036,1.709,1.189,3.343
			c-0.506,0.978-1.211,1.712-2.26,2.083c-1.095,0.386-2.369,0.372-2.931-0.47c-0.916-1.372-0.435-4.42,0.168-5.755
			c-4.811-0.793-8.279-2.438-12.583-4.628c-3.716-1.891-7.877-1.27-11.587-2.936c-6.27-2.818-12.265-6.963-17.811-10.976
			c-7.499-5.426-13.396-12.072-20.057-18.419c-2.77-2.641-6.263-3.965-8.776-6.945c-2.504-2.97-5.157-5.83-6.446-9.549
			c-1.349-3.886-2.612-6.204-5.825-8.833c-2.694-2.204-4.34-6.141-3.065-9.43c1.549-3.999,1.151-8.098,1.341-12.383
			c0.222-5.031,0.302-9.971-0.458-14.966c-1.264-8.302-3.596-16.721-6.978-24.419c-1.439-3.277-3.264-6.488-5.943-8.913
			c-1.408-1.275-3.026-2.295-4.784-3.012c-0.566-0.231-2.433-0.476-2.818-0.866c-0.612-0.62-0.692-2.88-0.826-3.708
			c-0.283-1.743-0.659-2.751-1.382-4.222c-0.342-0.702-0.404-1.587-0.517-2.344c0.193-0.637,0.138-1.246-0.164-1.827
			c-0.324-0.246-0.643-0.497-0.957-0.753c-0.378-0.98-0.072-1.891-0.592-2.846c-0.989-1.82-3.084-2.254-3.744,0.013
			c-0.353,1.209,0.098,2.484,0.118,3.694c0.007,0.483-0.293,1.157-0.101,1.62c0.318,0.766,1.115,0.852,1.489,1.627
			c0.13,0.266,0.061,1.397,0.19,1.824c0.299,0.999,0.813,1.238,1.302,2.008c0.805,1.269,1.273,3.092,1.717,4.571
			c-3.615,0.049-7.132,1.453-9.698,4.019c-0.465-1.264-0.611-2.549-1.026-3.818c-0.347-1.057-0.967-1.659-1.41-2.637
			c-0.327-0.729-0.205-1.534-0.411-2.234c-0.209-0.712-0.536-1.019-0.779-1.604c-0.304-0.732-0.354-1.57-0.657-2.388
			c-0.67-1.807-2.815-2.887-3.826-0.787c-0.331,0.687-0.512,4.434-0.137,5.375c0.325,0.815,1.145,0.893,1.537,1.683
			c0.499,1.01,0.022,1.9,0.883,2.976c0.992,1.238,1.457,1.877,2.139,3.422c0.274,0.621,0.723,1.196,0.943,1.824
			c0.449,1.272,0.481,0.307,0.159,1.867c-0.702,3.392-1.851,6.226-1.943,9.815c-0.093,3.692,0.129,7.408,0.567,11.072
			c-1.793-2.165-3.563-3.198-5.078-5.794c-0.877-1.507-1.374-3.047-2.055-4.64c-0.637-1.489-1.846-2.475-2.268-4.087
			c-0.259-0.993-0.068-2.013-0.526-2.942c-0.454-0.923-0.918-0.817-1.192-1.923c-0.28-1.142-0.027-1.733-0.828-2.791
			c-1.095-1.448-2.62-1.677-3.376,0.092c-0.528,1.234-0.075,2.694-0.04,3.965c0.053,1.927,0.142,1.846,1.122,3.249
			c0.844,1.205,0.746,2.699,1.662,4.011c0.929,1.335,1.991,2.203,2.795,3.7c0.842,1.568,1.776,2.91,2.937,4.27
			c2.253,2.636,5.381,4.449,7.245,7.421c1.127,1.797,1.237,4.781,1.801,6.889c0.564,2.104,1.205,4.185,1.929,6.24
			c3.09,8.769,7.699,17.706,15.081,23.623c-1.485-0.522-2.541-0.952-3.924-1.673c-1.016-0.531-2.135-0.56-3.116-1.136
			c-3.581-2.098-4.772-5.739-7.239-8.711c-0.883-1.066-1.785-1.638-2.297-3.023c-0.466-1.261-0.438-2.301-1.125-3.431
			c-0.856-1.409-0.663-1.548-1.051-3.26c-0.242-1.064-1.092-2.81-2.21-3.136c-2.984-0.868-2.337,5.113-2.088,6.935
			c0.225,1.655,1.455,1.994,2.103,3.389c0.661,1.426,0.761,2.853,1.955,4.087c1.369,1.414,2.694,2.637,3.997,4.175
			c1.401,1.656,3.046,2.952,4.829,4.186c1.638,1.132,3.376,1.459,5.003,2.435c1.737,1.043,3.375,1.873,5.217,2.789
			c0.653,0.326,1.289,0.749,1.936,1.058c0.37,0.178,2.107,0.582,2.243,0.729c0.368,0.397,0.355,1.977,0.524,2.566
			c0.309,1.074,0.724,2.116,1.374,3.033c2.464,3.477,6.51,4.761,8.474,8.725c1.964,3.962,3.635,6.979,6.704,10.199
			c3.194,3.351,6.256,5.732,10.329,7.928c4.219,2.274,7.82,6.237,11.551,9.248c3.482,2.811,6.812,5.462,10.637,7.825
			c4.301,2.656,8.748,5.01,13.26,7.287c3.916,1.976,8.089,4.633,12.441,5.388c2.139,0.37,4.344,0.421,6.39,1.215
			c2.291,0.89,4.284,2.487,6.402,3.699c4.257,2.437,9.179,3.133,13.749,4.801c5.05,1.842,9.869,3.828,14.806,5.925
			c2.49,1.059,4.975,1.346,7.662,1.429c1.086,0.034,2.321,0.198,3.397,0.064c1.172-0.146,1.848-0.7,3.005-1.043
			c-2.503-0.584-1.246-4.235,0.883-3.235c2.467,1.16-0.15,4.396,3.524,4.366c0.6-0.004,1.259-0.462,1.834-0.427
			c1.097,0.069,0.487-0.35,1.341,0.697c0.999,1.228,1.406,3.253,2.581,4.327c0.34,0.31,4.92,3.024,1.736,2.834
			c10.748,17.525,21.097,35.326,30.553,53.584c4.421,8.539,10.647,15.63,14.214,24.675c3.782,9.591,7.882,18.741,12.431,27.992
			c4.906,9.979,9.513,20.639,13.014,31.197c-5.003-6.556-9.757-13.301-14.815-19.814c-1.321-1.7-2.661-3.384-4.029-5.048
			c-0.255-0.307-0.51-0.613-0.764-0.921c-0.321-0.92-0.89-1.176-1.703-0.764c-0.712-0.159-1.421-0.053-2.154-0.301
			c-1.516-0.509-3.214-1.778-3.897-3.26c-0.283-0.616-0.747-4.336,0.222-4.247c-3.259-3.568-8.383-6.949-7.957-11.938
			c0.113-1.324,0.144-3.374-1.185-4.235c-2.203-1.427-2.913,1.803-3.201,3.365c-0.776-0.762-1.551-1.528-2.336-2.282
			c1.014,2.089,0.619,4.239-1.978,3.351c-2.002-0.685-4.89-2.15-6.31-3.762c-1.613-1.833-1.472-4.285-1.617-6.58
			c-0.137-2.205-0.59-2.46-2.23-3.801c-4.821-3.943-9.854-7.629-14.902-11.272c-2.443-1.764-4.89-3.521-7.359-5.248
			c-0.996-0.697-2.598-2.17-3.501-1.983c-0.94,0.195-1.72,1.36-2.995,1.507c0.067-0.749,0.507-2.642,0.304-3.361
			c-0.218-0.772-1.161-1.136-1.878-1.594c-1.087-0.695-3.411-1.51-3.955-2.659c0.469,3.308,3.328,5.78,3.565,8.805
			c-0.168-2.12-1.775-3.425-2.613-5.394c-0.547-1.284-0.626-2.702-1.266-3.904c-0.593-1.109-1.861-2.469-3.076-2.877
			c-0.856-0.286-1.042-0.012-1.733,0.003c-0.176,0.737-0.571,0.752-1.185,0.043c-0.607-0.318-1.218-0.629-1.833-0.935
			c0.28,1.3,0.072,4.028-1.925,3.514c-1.592-0.409-2.518-3.938-1.379-5.068c-7.35-3.278-15.08-5.438-22.827-7.546
			c-7.804-2.123-15.609-4.118-23.633-5.225c-9.314-1.285-18.814-1.581-28.188-0.776c0.833,0.552,2.097,1.968,3.144,1.254
			c-0.538-0.039-0.913,0.156-1.125,0.585c-0.254,0.343-0.504,0.689-0.748,1.038c-0.49,0.309-0.315,0.557-0.996,0.344
			c-1.367-0.427-0.854-2.162-0.779-3.182c-8.022,0.74-16.129,2.494-23.404,6.041c-3.116,1.519-6.064,3.38-8.731,5.595
			c-2.353,1.955-6.141,5.226-7.058,8.259c-0.475,1.566,0.09,3.348-0.451,5.006c-0.418,1.279-0.85,2.051-1.833,2.941
			c-0.272,0.247-1.071,0.072-1.237,0.231c-0.211,0.203-0.573,1.872-0.65,2.216c-0.504,2.276-0.787,4.612-0.736,6.945
			c0.163,7.678,3.933,14.168,9.706,19.046c6.206,5.245,13.723,9.14,20.887,12.892c7.198,3.768,14.664,6.797,22.327,9.478
			c14.939,5.228,29.863,10.421,44.882,15.422c8.306,2.766,16.379,6.174,24.657,9.02c8.283,2.847,16.793,4.854,25.229,7.17
			c0.029-1.241-0.399-4.105,1.874-3.344c1.216,0.407,2.15,3.043,2.832,3.919c0.646,0.828,1.989,2.096,3.354,1.899
			c0.642-0.092,1.284-0.779,2.141-0.861c1.294-0.123,1.356,0.007,2.089,0.955c0.397,0.514,0.365,1.379,0.806,1.858
			c0.439,0.478,1.865,0.796,2.494,1.079c1.461,0.657,2.907,1.345,4.352,2.036c3.483,1.67,6.913,3.448,10.36,5.19
			c6.878,3.474,13.856,6.747,20.607,10.469c2.085,1.148,4.23,2.163,5.912,3.837c1.099,1.094,2.094,2.308,3.14,3.453
			c8.067,8.844,15.128,18.57,23.564,27.011c5.089,5.093,7.274,11.435,10.607,17.63c3.271,6.081,7.23,11.642,10.241,17.891
			c1.763,3.661,3.79,6.947,3.874,11.031c0.086,4.202,0.455,8.375,1.13,12.523c1.304,8,2.679,16.044,4.312,23.984
			C533.951,887.817,534.891,891.492,536.312,894.951z M605.549,504.525c-0.05,1.489-2.487,1.732-3.679,1.413
			c-0.669-0.179-1.207-0.514-1.694-0.995c-1.301-1.28-0.708-1.153,0.259-2.061c0.588-0.555,2.712-2.077,3.443-2.122
			C606.239,500.615,605.601,503.049,605.549,504.525z M606.529,480.983c0.054-0.661,1.354-0.618,1.26,0.128
			C607.652,482.195,606.448,482.012,606.529,480.983z M595.126,409.17c0.318-1.77,1.185-3.383,1.364-5.185
			c0.152-1.543-0.284-3.085,0.084-4.612c0.893-3.696,2.81-6.725,4.887-9.846c4.806-6.428,9.762-12.753,15.129-18.725
			c-0.893,2.438-2.276,4.622-3.038,7.107c-0.802,2.615-1.029,5.179-1.579,7.837c-0.305,1.476-0.911,2.876-1.043,4.387
			c-0.11,1.276,0.205,2.526,0.173,3.801c-0.042,1.679-0.378,3.384-0.536,5.052c-0.565,6.041-1.728,13.191-0.717,19.187
			c0.385,2.274,0.749,4.4,0.869,6.724c0.074,1.47-0.172,2.891-0.166,4.351c0.007,1.634,0.632,2.807,1.065,4.334
			c0.683,2.397,0.126,4.943,0.636,7.415c0.254,1.23,1.17,6.537,2.994,6.72c2.245,0.224,1.784-11.344,1.662-13.236
			c-0.094-1.429-0.744-2.53-1.195-3.863c-0.503-1.48-0.332-2.68-0.326-4.203c0.013-2.749-0.479-5.605-1.202-8.249
			c-0.819-2.997-0.635-6.19-0.621-9.276c0.014-3.337-0.175-6.669-0.056-10.01c0.1-2.859-0.253-6.164,0.216-8.954
			c0.472-2.809,1.426-5.957,2.303-8.68c0.728-2.263,7.816-14.056,5.326-15.57c15.029-16.045,43.454-37.581,65.579-21.585
			c9.748,7.048,13.924,19.861,14.124,31.463c0.111,6.461-1.073,12.857-3.054,18.99c-1.031,3.194-2.266,6.317-3.635,9.379
			c-0.306,0.682-0.807,1.481-1.003,2.176c-0.334,1.195-0.279,0.579-0.089,1.769c0.219,1.37,0.697,2.407,0.592,3.869
			c-0.22,3.109-1.696,3.968-4.487,3.998c-1.589,0.018-0.35-0.522-1.406,0.626c-0.678,0.738-1.271,2.203-1.782,3.071
			c-0.908,1.538-1.832,3.067-2.765,4.59c-3.834,6.254-7.786,12.438-11.663,18.665c-1.658-1.875-4.355,2.611-5.082,3.66
			c-1.461,2.115-3.502,3.816-5.287,5.681c-2.033,2.126-3.994,3.723-6.267,5.552c-1.265,1.018-2.078,2.34-3.461,3.222
			c-5.114,3.253-10.588,4.538-16.124,6.688c-2.691,1.046-5.029,2.497-8,2.83c-1.728,0.194-2.686,0.203-4.25,0.981
			c-1.003,0.498-1.704,1.003-2.885,1.031c0.875-3.092,1.624-6.228,2.301-9.371c0.324-1.507,0.627-3.02,0.88-4.541
			c0.13-0.781,0.03-3.2,0.499-3.713c0.479-0.526,3.15-0.873,3.781-1.086c0.937-0.317,1.843-0.66,2.798-0.914
			c1.301-0.345,2.393-0.479,3.527-1.251c1.265-0.861,2.066-2.069,3.504-2.712c2.617-1.171,5.275-2.073,7.569-3.91
			c2.564-2.054,5.075-3.848,7.858-5.649c2.74-1.774,5.245-3.89,7.66-6.081c2.473-2.246,4.241-4.548,6.336-7.059
			c1.689-2.026,3.764-3.489,5.329-5.665c1.581-2.199,3.318-4.318,5.074-6.373c1.735-2.031,2.792-4.616,3.561-7.166
			c1.044-3.464-0.964-4.388-2.979-1.475c-1.617,2.337-2.451,4.957-4.188,7.247c-1.657,2.182-3.04,4.576-4.535,6.868
			c-1.524,2.334-3.782,3.957-5.314,6.297c-1.199,1.833-2.821,3.1-4.524,4.484c-3.014,2.449-6.199,4.617-9.606,6.47
			c-3.085,1.679-5.797,3.808-8.818,5.507c-1.785,1.006-3.425,1.611-5.354,2.238c-1.885,0.612-2.729,1.802-4.333,2.792
			c-1.198,0.741-2.598,0.801-3.889,1.299c-1.032,0.398-3.316,2.295-3.695,1.346c1.308,0.535,1.597-1.262,1.676-2.077
			c0.147-1.512,0.023-2.212,0.699-3.641c1.144-2.422,2.776-4.642,3.436-7.268c0.756-3.001,1.005-5.536,2.397-8.346
			c0.519-1.05,1.736-2.897,1.729-4.118l-0.002-0.007l0.002,0.005c2.195-6.437,3.747-12.917,6.443-19.191
			c2.829-6.583,5.352-13.304,8.479-19.757c1.297-2.68,2.099-5.678,3.576-8.247c1.835-3.192,4.129-6.363,6.185-9.431
			c3.517-5.25,8.133-9.63,12.186-14.438c0.894-1.06,4.958-4.35,4.285-6.036c-0.832-2.084-4.849,1.59-5.671,2.314
			c-2.252,1.984-3.935,4.505-5.993,6.678c-2.394,2.526-4.464,5.164-6.379,8.073c-6.543,9.94-11.445,20.9-16.478,31.689
			c-3.258,6.986-6.394,13.749-8.747,21.076c-1.167,3.629-2.719,7.131-4.477,10.5c-1.591,3.048-1.53,6.42-2.939,9.469
			c-0.573-5.592-1.262-11.129-1.871-16.669c-0.599-5.455,0.736-11.697,2.07-16.965c0.785-3.101,1.121-6.113,1.712-9.215
			c0.608-3.195,2.731-5.879,3.281-8.966c0.274-1.54,0.091-2.792,0.813-4.255c0.475-0.964,1.132-1.812,1.544-2.814
			c0.621-1.51,2.655-6.548,1.411-8.075c-1.861-2.286-7.393,8.231-8.12,10.185c-0.509,1.368-0.241,2.709-0.462,4.101
			c-0.233,1.468-1.057,2.569-1.563,3.938c-1.036,2.801-1.141,5.542-1.321,8.443c-0.194,3.13-1.176,6.216-1.583,9.329
			c-0.492,3.763-0.498,7.589-0.554,11.376c-0.038,2.601,0.754,5.059,0.639,7.63c-0.138,3.111,0.079,6.017,0.263,9.12
			c0.105,1.771,0.198,3.479,0.169,5.249c-0.023,1.408,0.583,2.888,0.534,4.211c-0.053,1.512-1.195,3.53-1.574,5.018
			c-0.421,1.65-0.631,2.873-1.46,4.298c-1.657,2.849-3.589,5.527-5.177,8.434c-0.755,1.382-1.637,2.778-2.218,4.246
			c-0.173,0.438,0.048,0.772-0.218,1.258c-0.304,0.551-1.117,1.39-1.524,2.188c-1.091-1.624-2.474-3.062-3.345-4.824
			c-0.757-1.529-1.219-3.198-1.946-4.746c-1.613-3.439-3.553-6.772-4.503-10.462c-0.682-2.647-2.088-4.924-2.737-7.555
			c-0.869-3.515-1.316-7.171-1.624-10.772c-0.335-3.925-0.032-7.789,0.041-11.717C594.997,415.759,594.515,412.574,595.126,409.17z
			 M579.656,431.222c0.172-1.327-0.187-2.686,0.437-3.895c3.703-7.085,7.06-14.354,11.073-21.277
			c-0.844,3.021-1.146,6.43-0.747,9.549c0.582,4.568,0.314,9.18,0.85,13.758c0.352,3.01,0.951,5.972,1.608,8.926
			c0.877,3.94,2.713,7.46,3.593,11.328c0.918,4.041,2.633,7.732,4.148,11.58c0.751,1.908,1.179,3.992,2.186,5.791
			c1.037,1.851,2.991,3.157,3.982,4.956c0.597,1.084,0.328,1.093-0.344,2.435c-0.487,0.97-0.971,1.942-1.45,2.917
			c-1.09,2.222-2.15,4.457-3.176,6.709c-1.924,4.22-3.673,8.541-5.827,12.65c-0.767-3.037-3.142-5.35-4.333-8.209
			c-1.091-2.625-2.584-5.069-4.003-7.525c-1.489-2.579-2.285-5.46-3.722-8.088c-1.145-2.092-1.589-4.661-2.121-6.954
			c-0.781-3.364-1.301-6.693-1.553-10.134c-0.265-3.621-1.149-7.136-1.247-10.738c-0.049-1.792,0.301-3.277,0.492-5.026
			c0.181-1.648-0.487-2.914-0.589-4.516C578.818,433.999,579.473,432.649,579.656,431.222z M538.205,676.101
			c0.043-26.702,0.053-53.721,2.686-80.309c0.318-3.21,1.333-6.988,1.037-10.183c-0.087-0.941-0.106-0.817-0.38-1.54
			c-0.122-0.325-0.648-0.906-0.797-1.19c-0.721-1.373-0.88-3.319-0.967-4.832c-0.145-2.539,0.307-5.138,1.706-7.299
			c0.544-0.84,1.714-1.551,2.138-2.378c0.654-1.276,0.37-4.406,0.482-5.818c1.055-13.364,1.654-26.87,3.93-40.099
			c2.339-13.588,6.319-26.903,10.543-40.008c0.705,2.385-0.326,5.389-0.077,7.934c0.278,2.854,1.21,5.6,1.57,8.479
			c0.692,5.517,1.891,11.878,4.71,16.73c1.217,2.096,1.516,4.258,2.491,6.455c0.994,2.237,2.223,4.363,3.106,6.659
			c1.051,2.733,2.066,4.735,3.961,6.99c1.194,1.421,4.093,3.381,3.668,0.022c-0.302-2.381-2.436-4.104-3.439-6.158
			c-1.118-2.293-2.055-4.625-3.359-6.839c-1.256-2.13-1.817-4.286-2.869-6.476c-0.694-1.45-1.646-2.597-2.146-4.14
			c-1.828-5.634-2.042-11.27-2.514-17.092c-0.215-2.65-1.002-5.086-0.78-7.809c0.109-1.339,0.708-2.634,0.731-3.974
			c0.026-1.376-0.71-2.62-0.574-4.006c0.298-3.06,1.571-5.606,0.694-8.826c-0.453-1.66-0.58-2.132,0.031-3.886
			c0.635-1.826,1.261-3.653,1.914-5.471c2.702-7.53,5.721-14.961,8.973-22.269c0.338,1.327-0.229,2.743-0.291,4.073
			c-0.072,1.505,0.114,3.148,0.329,4.638c0.344,2.378,1.177,4.612,1.525,7.013c0.9,6.209,2.122,12.691,4.727,18.451
			c1.036,2.289,2.105,4.135,2.85,6.582c0.737,2.423,2.095,4.748,3.131,7.067c0.957,2.146,1.547,4.552,2.804,6.535
			c0.956,1.507,3.185,5.311,5.125,5.602c-2.991,5.493-6.11,10.948-8.004,16.943c-2.168,6.864-2.662,14.132-4.813,20.988
			c-1.957,6.24-5.242,11.978-7.802,17.973c-2.98,6.979-4.988,14.44-7.256,21.674c-1.271-2.565-3.809-4.484-4.485-7.217
			c-0.4-1.615,0.156-2.824,0.179-4.388c0.01-0.76-0.299-1.327-0.244-2.051c0.08-1.061,0.774-1.633,1.005-2.591
			c0.029-0.122-0.394-0.751-0.337-1.109c0.047-0.306,0.574-0.755,0.709-1.102c0.846-2.169-0.253-3.839-0.828-5.97
			c-0.29-1.078-0.857-2.013-1.321-3.012c-0.572-1.234-0.88-2.571-1.515-3.73c-2.126-3.867-1.87-8.487-2.98-12.654
			c-0.424-1.594-0.013-2.88-0.163-4.381c-0.113-1.122-0.41-0.794-0.624-1.58c-0.205-0.754-0.195-1.155-0.263-1.954
			c-0.12-1.437-0.561-5.152-2.871-4.29c-1.808,0.675-1.421,3.726-1.634,5.206c-0.13,0.9-0.484,1.582-0.217,2.476
			c0.18,0.603,0.937,0.861,1.126,1.526c0.163,0.577-0.206,1.319-0.159,1.923c0.176,2.208,1.671,4.129,2.123,6.319
			c0.556,2.694,1.387,5.438,2.661,7.863c0.957,1.822,1.731,4.152,2.184,6.301c0.199,0.942,0.082,2.018,0.378,2.912
			c0.626,1.884,1.265,1.059-0.058,2.77c-0.126,0.163-1.472,1.959-1.497,2.145c-0.112,0.826,0.498,1.042,0.484,1.846
			c-0.02,1.145-0.615,1.574-0.274,2.873c0.34,1.294,0.477,2.742,0.826,4.142c0.608,2.443,2.148,3.885,2.934,6.12
			c0.588,1.675,1.686,5.607,4.246,3.579c-2.051,6.618-3.638,13.18-4.87,19.999c-0.39-0.452-0.817-0.766-1.326-0.293
			c-0.604,0.564,0.175,1.872,0.291,2.39c0.255,1.131,0.357,1.531,0.072,2.889c-0.868,4.134-2.239,8.152-3.422,12.204
			c-2.548,8.735-4.956,17.509-7.487,26.249c-5.236,18.076-8.747,36.692-11.798,55.249
			C538.075,690.015,538.158,683.057,538.205,676.101z M571.774,575.708c-0.346,0.664-0.43,1.349-0.19,2.061
			C571.388,577.278,571.67,576.118,571.774,575.708z M551.822,637.482c-0.239-0.041-0.476-0.082-0.714-0.123
			c0.161-0.187,0.323-0.374,0.484-0.561C551.668,637.026,551.745,637.253,551.822,637.482z M535.029,738.506
			c1.903-0.734,3.622-2.367,5.82-1.889c0.126-9.728,2.316-19.559,4.096-29.084c0.535-2.863,1.066-5.726,1.656-8.578
			c0.254-1.235,0.524-2.467,0.787-3.701c0.306-1.435,2.367-7.445,1.361-8.374c1.682-1.327,1.886-6.408,2.381-8.491
			c0.723-3.042,1.458-6.081,2.239-9.108c1.481-5.732,3.224-11.434,4.601-17.184c0.565-2.36-0.615-5.446,0.849-7.583
			c0.403-0.588,0.791-0.682,1.242-1.138c0.826-0.836,0.61-0.389,1.166-1.374c0.76-1.351,1.081-3.303,1.536-4.78
			c1.747-5.697,3.632-11.347,5.494-17.005c1.959-5.955,4.003-11.835,5.348-17.965c1.188-5.422,2.292-10.835,4.117-16.088
			c0.932-2.683,1.865-5.366,2.8-8.048c0.737-2.118,1.014-5.247,3.307-6.049c2.137-0.749,4.372-0.531,6.434-1.836
			c1.218-0.772,0.662-0.642,2.235-1.098c0.856-0.247,1.557-0.875,2.475-1.084c1.148-0.261,2.014-0.12,2.696-1.3
			c0.508-0.878,0.785-1.913-0.216-2.718c-1.091-0.879-1.387-0.072-2.33,0.255c-0.862,0.299-1.811,0.645-2.624,1.159
			c-2.797,1.771-4.772,3.508-8.55,2.965c1.738-4.948,3.816-9.615,6.185-14.29c1.344-2.651,2.691-5.304,3.876-8.03
			c0.318-0.732,0.689-2.415,1.228-2.939c0.151-0.149,2.024-0.884,2.369-1.032c1.736-0.749,3.643-0.528,5.494-1.26
			c2.233-0.885,4.181-2.033,6.523-2.828c2.227-0.755,4.273-1.803,6.34-2.921c2.263-1.226,3.906-3.01,6.31-3.87
			c-7.891,14.799-14.822,30.144-21.687,45.437c-6.979,15.548-14.061,31.057-20.446,46.864c-3.044,7.536-6.243,15.009-9.337,22.524
			c-1.303,3.163-3.988,7.443-4.297,10.842c-0.15,1.644,0.166,1.695-0.884,3.036c-1.174,1.497-1.878,3.683-2.629,5.689
			c-5.734,15.289-10.352,30.91-14.923,46.578c-1.272,4.361-2.601,8.707-3.818,13.084c-0.612,2.203-1.204,4.411-1.798,6.618
			c-0.233,0.866-0.465,1.73-0.698,2.595c-0.198,0.727-0.391,1.452-0.582,2.179c0.346,0.073,0.664,0.209,0.951,0.408
			c0.312,0.662,0.59,0.441,0.625,1.385c0.036,0.959-1.07,2.394-1.613,3.127c-0.941,1.27-2.517,3.076-4.159,3.227
			C533.38,745.162,531.291,739.95,535.029,738.506z M530.104,233.828c0.271-0.962,1.309-1.382,2.181-1.024
			c1.261,0.517,1.87,2.995,2.268,4.195c0.779,2.344,2.413,7.687,0.383,9.674c-2.47,2.415-4.352-1.613-4.862-3.602
			C529.334,240.182,529.296,236.709,530.104,233.828z M501.74,406.982c-0.61,0.751-1.69-0.14-1.17-0.992
			C501.038,405.22,502.386,406.187,501.74,406.982z M497.317,499.622c-3.695,1.054-3.589-0.701-3.186-3.993
			c1.342-0.09,2.767-0.394,3.79,0.616c0.305,0.302,0.454,0.989,0.595,1.357C499.109,499.146,498.831,499.19,497.317,499.622z
			 M482.241,587.274c-1.188-0.222-1.234-2.459,0.082-2.023C483.309,585.579,483.544,587.515,482.241,587.274z M486.862,601.295
			c0.473-3.04,4.393-1.886,3.949,0.951C490.334,605.28,486.395,604.26,486.862,601.295z M281.374,427.402
			c-2.107,0.075-5.998-0.011-7.414-1.908c-1.292-1.731-0.139-3.212,1.461-3.995c1.88-0.918,4.721,0.309,6.379,1.593
			c0.438,0.338,2.323,2.128,2.214,2.71C283.919,426.314,281.888,427.382,281.374,427.402z M291.332,410.171
			C290.619,408.551,291.793,409.104,291.332,410.171L291.332,410.171z M403.918,560.329c-0.487,1.658-1.793-1.139-1.963-1.402
			C403.169,558.863,404.47,558.455,403.918,560.329z M416.165,581.85c0.78-3.487,4.107-0.108,3.229,2.227
			C418.133,587.434,415.615,584.309,416.165,581.85z M428.536,608.497c-1.634-1.511,1.113-4.574,1.885-5.984
			c-1.521-0.749-3.286-1.307-4.524-2.52c-1.469-1.441-1.651-3.826,1.099-3.616c2.097,0.16,2.476,2.038,3.032,3.653
			c0.667,1.935,1.929,4.052,1.809,6.203C431.753,607.808,430.396,610.214,428.536,608.497z M509.64,762
			c1.773-2.08,5.498-0.135,6.147,2.106c0.653,2.254-3.237,4.533-4.834,5.778c-1.641,1.278-5.351,3.648-6.402,0.37
			C503.813,767.946,508.223,763.66,509.64,762z M451.29,745.692c-6.84-3.469-13.638-6.83-20.927-9.274
			c-4.209-1.411-8.492-2.563-12.799-3.637c-3.733-0.929-8.15-2.781-11.969-2.31c0.6-0.074,1.2-0.147,1.801-0.22
			c-8.427-2.197-16.551-5.309-24.739-8.245c-9.199-3.298-18.614-5.922-27.905-8.938c-18.947-6.148-38.342-11.861-55.819-21.578
			c2.331-0.592,4.291-1.98,6.559-2.667c2.337-0.707,4.786-1.188,7.146-1.839c1.976-0.543,3.944-1.308,5.983-1.555
			c2.601-0.315,5.034-0.898,7.595-1.272c4.383-0.642,9.339-0.073,13.693,0.492c2.86,0.37,5.667,1.136,8.528,1.496
			c2.327,0.292,4.569,0.176,6.903,0.603c2.411,0.44,4.761,1.775,7.174,1.911c2.552,0.143,3.75,0.122,6.134,1.244
			c1.84,0.868,4.246,2.158,6.246,2.473c2.697,0.424,1.789-2.009,0.597-3.478c-1.382-1.705-3.28-2.587-5.168-3.568
			c-2.671-1.387-4.043-1.685-7.05-1.6c-2.339,0.065-4.506-1.09-6.836-1.39c-2.242-0.289-4.254-0.28-6.5-0.25
			c-5.808,0.081-11.54-1.231-17.414-1.016c-2.525,0.092-5.211,0.006-7.678,0.604c-2.854,0.692-5.575,0.58-8.45,1.093
			c-2.297,0.41-4.6,1.023-6.885,1.517c-2.389,0.517-4.881,0.661-7.108,1.711c-1.908,0.901-3.796,2.735-5.677,3.453
			c-1.127,0.43-0.097,0.425-1.326,0.056c-0.58-0.174-1.313-0.732-1.859-1.05c-1.562-0.91-3.104-1.861-4.59-2.892
			c-4.219-2.928-8.013-6.58-9.294-11.717c-1.414-5.678,0.205-12.108,3.085-17.081c5.822-10.054,17.693-14.592,28.581-16.54
			c3.46-0.618,6.943-0.982,10.449-1.212c2.666-0.174,7.301-1.122,9.829-0.21c1.619,0.583,2.481,3.076,3.914,3.883
			c1.191,0.67,2.199,0.443,3.303,1.371c0.924,0.776,1.584,1.595,2.635,2.266c1.068,0.683,2.184,0.947,3.268,1.545
			c1.518,0.839,2.735,2.341,4.055,3.444c2.099,1.754,4.518,3.891,6.862,5.279c1.529,0.907,2.225,1.43,3.437,2.733
			c0.935,1.005,2.027,1.836,2.962,2.852c0.933,1.01,1.494,2.146,2.298,3.223c0.699,0.937,1.623,1.375,2.475,2.154
			c-1.652-0.527-3.332-1.012-5.038-1.333c-1.118-0.212-2.547-0.024-3.6-0.331c-2.695-0.784-5.396-2.304-7.968-3.457
			c-2.631-1.178-5.432-1.519-8.109-2.473c-1.347-0.479-2.537-1.298-3.949-1.603c-1.123-0.244-2.274-0.156-3.396-0.439
			c-5.978-1.506-11.638-4.435-17.709-5.619c-3.155-0.615-6.453-0.265-9.645-0.967c-3.322-0.729-6.137,0.114-9.487-0.05
			c-2.457-0.121-6.519,0.595-8.22,2.571c-2.49,2.89,3.751,2.29,5.323,2.284c2.514-0.01,5.239,0.717,7.649,0.059
			c3.356-0.915,6.33,0.247,9.818,0.243c2.009-0.002,3.676-0.203,5.697,0.195c1.632,0.32,3.206,0.776,4.817,1.171
			c3.436,0.843,6.875,1.638,10.3,2.525c2.617,0.677,4.643,0.863,7.114,2.043c2.879,1.373,5.981,2.033,8.815,3.586
			c1.706,0.934,3.1,1.67,4.996,2.184c1.535,0.416,1.634,0.593,2.383,1.889c1.79,3.097,4.897,5.602,7.622,7.83
			c6.342,5.187,13.458,9.956,19.261,15.727c-0.455,0.235-0.881,0.534-1.368,0.707c-1.064,0.38-1.685,0.254-2.268,0.836
			c-0.54,0.541,0.04,1.142-0.91,1.521c-0.954,0.383-1.188-0.555-1.908-0.7c-0.092-0.558-0.329-0.713-0.71-0.461
			c-0.461,0.148-0.915,0.322-1.36,0.519c-0.956,0.394-1.895,0.847-2.819,1.311c-1.68,0.847-2.744,2.056-4.453,2.822
			c-1.484,0.665-2.667,1.739-4.073,2.571c-1.066,0.631-2.318,1.05-3.221,1.899c-0.882,0.83-2.5,2.984-1.775,4.18
			c1.251,2.069,3.183-0.222,4.139-1.164c1.718-1.69,4.4-3.927,6.495-5.084c2.346-1.296,3.371-2.538,6.082-3.338
			c1.692-0.499,3.311-0.782,5.068-0.845c1.745-0.064,3.1-0.471,4.742-0.758c3.236-0.569,5.898,3.294,8.586,4.745
			c-0.143-2.425-0.55-4.881-1.555-7.11c1.818-0.053,3.578-0.179,5.353,0.33c1.863,0.536,2.625,1.658,3.172,3.611
			c0.212,0.75,0.779,4.211-0.085,4.714c-0.847,0.492-5.221-0.999-6.209-1.187c3.793,1.971,8.079,2.862,11.655,5.277
			c3.557,2.402,6.224,5.896,9.307,8.828c-0.741,0.094-0.394,0.191-0.978,0.458c-1.125,0.514,0.35-0.238-1.19-0.034
			c-0.759,0.101-1.747-0.241-2.342-0.147c-1.955,0.306-1.957,3.485-0.144,3.962c0.315,0.083,1.786-0.345,2.214-0.413
			c0.158-0.025,1.382-0.327,1.382-0.327c0.318-0.11,0.603-0.705,0.817-0.723c0.512-0.045,1.051,0.094,1.547,0.224
			c0.663,0.174,1.188,0.573,1.797,0.77c0.364,0.118,1.473,0.305,1.636,0.366c1.962,0.753,3.8,2.573,5.48,3.92
			c3.038,2.435,6.009,4.849,9.336,6.883c3.244,1.982,6.524,3.801,9.372,6.341c3.199,2.852,6.24,5.88,9.331,8.846
			C452.849,746.527,452.071,746.107,451.29,745.692z M405.284,705.386c0.403-1.289,4.484-4.697,4.702-1.769
			C410.164,706.03,404.75,707.093,405.284,705.386z M515.706,804.107c-4.081-6.783-10.466-11.442-15.005-17.876
			c1.115,0.811,9.538,8.158,10.887,6.562c1.63-1.927-8.427-11.881-9.674-13.084c-0.561,2.002-4.731,1.818-6.439,2.061
			c-2.107,0.301-5.395,1.447-7.465,0.913c-1.984-0.511-1.979-3.085-2.296-4.765c-0.629-3.329-1.838-6.173-0.987-9.601
			c0.127-0.513,0.42-1.083,0.433-1.607c0.026-1.158,0.313-0.238-0.364-1.314c-0.536-0.851-1.638-1.732-2.327-2.559
			c-2.229-2.679-4.536-5.295-6.806-7.94c-4.472-5.21-8.757-10.654-13.465-15.648c-4.451-4.724-8.663-10.008-13.892-13.901
			c-2.503-1.864-5.18-3.482-7.716-5.299c-2.885-2.067-5.444-4.597-8.117-6.924c-4.629-4.03-8.92-7.89-13.095-12.389
			c-4.508-4.86-9.484-7.393-15.431-10.067c-6.055-2.724-9.789-8.091-15.088-11.875c-5.692-4.064-12.53-7.967-19.154-10.257
			c1.557-0.93,0.175-2.981-0.68-3.905c-1.132-1.224-2.272-2.472-3.419-3.695c-1.501-1.601-3.472-2.6-4.969-4.174
			c-1.22-1.284-2.293-1.598-3.696-2.606c-2.997-2.152-5.609-5.329-8.178-7.954c-1.497-1.532-3.176-2.301-4.851-3.561
			c-1.311-0.986-2.161-2.172-3.303-3.295c5.106,0.496,10.186,1.294,15.195,2.411c2.254,0.502,4.693,0.883,6.86,1.693
			c1.679,0.627,1.514,0.957,2.451,2.394c0.943,1.445,2.38,1.49,3.469,2.698c1.104,1.225,1.709,2.714,3.086,3.785
			c1.755,1.365,3.057,2.417,4.475,4.221c1.211,1.542,2.522,2.965,3.84,4.418c0.646,0.715,1.24,1.488,1.908,2.182
			c0.697,0.723,1.682,1.177,2.334,1.897c1.201,1.327,2.224,3.436,3.245,4.964c1.204,1.806,3.266,8.521,6.324,7.741
			c3.05-0.778-1.177-5.929-1.942-7.304c-0.959-1.725-2.464-2.907-3.681-4.401c-0.618-0.759-0.962-1.705-1.608-2.434
			c-0.631-0.713-1.53-1.072-2.201-1.745c-2.32-2.32-4.15-5.675-5.888-8.436c-0.475-0.755-1.16-2.179-1.869-2.56
			c-0.664-0.357-1.502,0.019-2.266-0.573c-1.196-0.929-1.513-2.959-2.132-4.259c1.339,0.41,1.085-1.264,2.7-1.25
			c1.501,0.012,2.105,1.369,2.928,2.293c1.004,1.128,2.3,1.387,3.878,1.936c0.893,0.31,3.182,1.514,3.673,1.045
			c0.873,1.155,3.061,1.594,4.472,2.274c2.346,1.127,4.628,2.342,6.887,3.634c0.82,0.469,1.709,0.951,2.358,1.54
			c0.094,0.421,0.298,0.785,0.61,1.093c0.494,0.349,0.992,0.691,1.495,1.027c1.041,1.219,1.217,3.181,2.156,4.584
			c1.253,1.872,2.563,3.218,3.493,5.37c0.827,1.917,1.766,3.733,2.736,5.588c1.005,1.921,2.622,3.886,3.345,5.823
			c0.68,1.824,1.386,3.987,1.878,5.889c0.416,1.608,1.316,9.39,4.399,7.705c1.972-1.078,0.172-3.912-0.245-5.217
			c-0.577-1.799-0.761-3.566-1.636-5.296c-1.029-2.034-1.73-4.167-3.009-5.995c-0.659-0.942-0.97-1.538-1.396-2.619
			c-0.799-2.029-1.681-4.059-2.382-6.125c-0.732-2.162-1.09-4.503-2.669-6.236c9.364,6.531,18.581,13.429,27.204,20.918
			c4.085,3.548,7.959,7.318,11.74,11.189c1.669,1.709,4.292,3.69,5.431,5.796c0.888,1.645,0.714,3.711,1.092,5.53
			c0.374,1.799,0.825,4.105,1.666,5.753c0.614,1.204,0.941,1.435,1.134,2.811c0.141,1.012,0.49,1.802,0.766,2.779
			c0.399,1.414,0.167,2.945,0.558,4.303c0.416,1.435,2.71,4.804,4.257,2.502c0.898-1.335-0.474-3.452-0.828-4.712
			c-0.483-1.722-1.442-3.337-1.916-5.028c-0.894-3.183-1.957-5.609-2.296-9.13c4.352,4.874,8.575,9.852,12.522,15.062
			c2.092,2.761,4.117,5.57,6.142,8.38c1.087,1.506,2.171,3.013,3.261,4.516c0.397,0.548,1.249,1.345,1.443,1.987
			c0.033,0.108-0.34,0.307-0.261,0.503c0.544,1.352,0.062,2.834,0.806,4.265c0.627,1.206,1.047,1.413,1.175,2.904
			c0.126,1.467,0.051,2.428,2.029,2.05c1.995-0.382,1.949-1.758,1.155-3.107c9.029,11.962,17.349,23.991,24.748,37.041
			c2.214,3.903,4.894,7.6,7.107,11.446c1.443,2.509,1.429,6.91,1.907,9.844c0.639,3.913,1.063,7.846,1.445,11.791
			C518.662,809.708,517.392,806.796,515.706,804.107z M375.01,652.042c1.161-1.209,3.735,1.125,2.572,2.428
			C376.341,655.858,373.566,653.543,375.01,652.042z M379.612,656.649c0.041-0.248,0.08-0.498,0.12-0.747
			c0.182,0.17,0.366,0.339,0.549,0.508C380.058,656.49,379.835,656.57,379.612,656.649z"/>
		<path d="M734.226,610.515c0.556-0.705,0.2-1.439,0.358-2.227c0.206-1.033,0.749-1.903,0.866-2.984
			c0.236-2.205,0.219-4.244,0.426-6.358c0.169-1.726,1.226-3.829,1.946-5.381c0.735-1.589,1.027-2.688,1.342-4.387
			c0.23-1.244,1.332-1.996,1.679-3.038c0.26-0.782-0.171-1.336-0.017-2.018c0.205-0.913,1.024-1.489,1.254-2.425
			c0.389-1.581-0.244-3.594-2.161-3.08c-1.352,0.364-2.066,2.278-2.789,3.262c-0.945,1.29-0.776,1.335-1.124,2.593
			c-0.265,0.951-0.02,0.864-0.512,2.014c-0.288,0.672-0.579,1.327-0.637,2.086c-0.081,1.076,0.097,1.829-0.141,2.926
			c-0.168,0.776-0.556,1.476-0.765,2.237c-0.5,1.822-0.803,4.021-0.821,5.882c-0.031,3.178-1.955,6.303-2.141,9.493
			C730.868,611.052,732.917,612.173,734.226,610.515z"/>
		<path d="M840.862,655.312c2.019-1.5,4.039-3.16,6.162-4.527c1.99-1.281,3.903-2.044,5.708-3.599
			c1.063-0.916,4.533-4.002,1.026-4.267c-2.055-0.156-3.647,1.89-5.17,2.877c-2.387,1.546-4.505,2.838-6.524,4.917
			c-1.507,1.55-3.378,2.505-4.607,4.287c-0.783,1.134-1.433,1.845-2.458,2.776c1.035,0.09,2.105,0.359,2.845,1.127
			C838.942,657.744,839.577,656.266,840.862,655.312z"/>
		<path d="M882.795,672.875c-1.641-2.536-10.964,5.076-12.603,6.343c-1.534,1.184-3.718,1.755-5.585,2.255
			c-1.286,0.345-2.584,0.454-3.884,0.73c-1.157,0.241-2.022,0.989-3.105,1.21c0.109-6.523-3.292-12.231-8.953-15.416
			c1.139-0.903,1.683-2.047,3.01-2.864c1.45-0.893,2.868-1.739,4.252-2.74c1.51-1.091,2.938-2.169,4.299-3.377
			c1.207-1.072,2.683-1.518,4.117-2.346c2.391-1.383,5.303-1.378,7.266-3.466c1.058-1.125,1.198-2.74-0.596-3.099
			c-1.47-0.294-3.203,1.17-4.463,1.758c-5.209,2.436-9.096,6.297-14.315,8.894c-1.581,0.787-3.599,1.317-4.997,2.418
			c-0.992,0.781-1.529,1.983-2.828,2.433c-1.485,0.515-3.611-0.37-5.286-0.544c-2.334-0.244-4.697-0.197-7.02,0.147
			c0.88-1.047,1.818-2.042,2.713-3.077c-1.134-0.156-2.244-0.528-2.906-1.532c-2.286,2.179-4.595,4.732-7.124,6.616
			c-2.458,1.831-5.594,2.977-8.18,4.735c-5.35,3.638-10.078,8.184-14.085,13.254c-4.022,5.089-6.593,10.75-9.829,16.299
			c-3.691,6.331-6.532,13.158-8.428,20.237c-0.268-2.124-0.44-3.891-0.458-6.017c-0.012-1.375-0.516-2.625-0.499-3.984
			c0.049-3.75,1.553-7.891,3.129-11.232c1.409-2.986,1.927-6.34,4.041-8.946c0.458-0.567,1.167-0.879,1.54-1.538
			c0.432-0.768,0.3-1.702,0.708-2.458c0.579-1.076,1.764-1.64,2.516-2.59c1.21-1.53,3.608-7.055-0.516-5.281
			c-2.391,1.028-6.057,4.423-6.805,6.819c-0.525,1.683-1.311,2.405-2.234,3.914c-0.981,1.603-1.292,3.321-1.663,5.099
			c-0.939,4.519-2.76,8.51-3.204,13.209c-0.135,1.428-0.325,2.831-0.134,4.252c0.292,2.181-0.069,4.063,0.023,6.252
			c0.084,1.998,0.434,3.992,0.413,6.006c-0.004,0.431,0.143,2.356-0.018,2.672c-0.233,0.453-1.693,1.134-2.145,1.489
			c-2.945,2.306-5.969,4.87-8.594,7.529c-1.439,1.459-2.695,3.106-4.292,4.405c-1.94,1.577-4.268,2.474-6.407,3.726
			c-3.155,1.843-4.431,5.002-7.151,7.25c-1.983,1.639-4.55,2.762-6.763,4.008c-7.817,4.398-15.846,8.111-24.342,10.943
			c-4.403,1.467-9.604,2.623-13.372,5.373c-3.725,2.718-7.752,4.17-12.187,5.49c-4.625,1.376-8.938-0.075-12.984,3.199
			c-1.514,1.225-2.78,2.515-4.74,2.979c-2.22,0.526-4.609,0.034-6.866,0.37c2.512-4.243,3.73-9.057,5.806-13.502
			c2.09-4.471,5.167-8.361,7.959-12.4c5.939-8.589,9.927-18.578,14.942-27.729c2.475-4.519,4.768-9.125,7.584-13.447
			c2.795-4.286,5.652-8.495,7.634-13.237c0.959-2.294,1.75-4.653,2.569-6.999c0.348-0.997,0.695-1.996,1.059-2.988
			c0.701-1.906,0.667-1.483,2.393-2.115c1.448-0.53,2.439-1.906,3.688-2.754c1.447-0.981,2.886-1.407,4.436-2.183
			c-1.277-1.029-1.48-1.396-1.91-2.959c1.767-0.209,4.584-0.412,5.801-1.941c1.251-1.57,0.935-5.13,1.158-7.053
			c1.559,0.512,2.826,1.589,3.867,2.823c1.284-2.109,3.241-3.227,5.219-4.665c1.941-1.409,3.068-3.246,4.843-4.799
			c1.66-1.455,3.187-2.066,4.355-3.949c0.913-1.471,2.344-2.049,3.448-3.379c0.869-1.049,2.977-4.267,1.06-5.168
			c-1.567-0.738-4.244,2.062-5.38,2.855c-1.745,1.22-2.379,1.654-3.44,3.466c-0.94,1.607-2.853,2.588-4.171,4.014
			c4.971-10.703,9.151-22.529,9.975-34.392c0.199-2.879,0.255-5.939-0.524-8.742c-0.459-1.653-0.746-1.904-0.131-3.253
			c0.975-2.139,3.01-4.262,4.501-6.075c1.589-1.931,2.427-3.651,3.548-5.792c0.768-1.464,2.456-2.436,2.978-3.935
			c0.327-0.941,0.058-1.561,0.599-2.441c0.377-0.612,0.995-1.016,1.346-1.681c0.61-1.155,1.48-4.415-0.342-5.011
			c-1.684-0.55-3.396,2.622-4.254,3.591c-1.095,1.237-1.577,1.794-2.05,3.296c-0.396,1.261-0.423,1.302-1.195,2.445
			c-0.471,0.699-0.934,1.381-1.25,2.179c-0.849,2.146-1.435,3.81-2.736,5.817c-1.253,1.933-2.268,4.013-3.417,6.013
			c-0.748-0.991-1.632-1.892-2.62-2.646c-0.367-0.28-1.211-0.654-1.546-1.016c-0.315-0.339-0.443-0.445-0.569-0.55
			c0.067-0.024,0.108-0.147,0.051-0.483c-0.236-1.387,0.269-3.108,0.797-4.441c0.879-2.22,1.836-4.383,3.027-6.448
			c1.247-2.161,1.642-4.327,2.733-6.477c0.874-1.72,1.843-2.594,2.292-4.441c0.37-1.514,1.453-2.416,1.978-3.916
			c0.556-1.595,0.728-4.891-1.807-3.941c-1.47,0.552-2.327,2.52-3.26,3.662c-0.479,0.585-1.261,1.077-1.583,1.761
			c-0.44,0.931,0.126,1.895-0.244,2.829c-0.325,0.823-1.144,1.527-1.539,2.355c-0.542,1.132-0.525,2.192-0.773,3.354
			c-0.484,2.277-1.739,4.326-2.43,6.564c-0.413,1.338-0.788,2.687-1.168,4.035c-0.313,1.11-0.078,3.086-0.582,3.995
			c-0.705,1.277-1.655,0.576-3.111,0.604c-1.232,0.024-2.462,0.223-3.633,0.608c-2.407,0.791-4.472,2.34-6.196,4.169
			c-3.249,3.451-5.382,7.825-7.499,12.015c-3.108,6.15-5.842,12.52-7.67,19.176c-0.897,3.261-1.131,6.778-2.216,9.941
			c-1.229,3.585-2.638,7.038-3.487,10.75c-0.135-2.689-0.039-5.306,0.657-7.908c0.675-2.513,0.338-5.078,1.544-7.417
			c0.351-0.68,0.856-1.046,1.038-1.84c0.153-0.667-0.257-1.097-0.037-1.771c0.235-0.722,0.973-1.232,1.289-1.951
			c1.311-2.977-0.512-5.61-3.268-2.853c-0.689,0.689-2.71,3.037-3.035,3.969c-0.38,1.095,0.174,2.14-0.201,3.288
			c-0.361,1.109-0.927,1.867-1.013,3.106c-0.089,1.265,0.211,2.419,0.135,3.687c-0.086,1.461-0.418,2.874-0.418,4.34
			c0,1.938-0.129,7.194,1.976,8.145c-1.319,1.487,0.545,4.724,1.082,6.322c0.397,1.182,1.211,2.344,1.544,3.504
			c0.429,1.499,0.456,0.361,0.053,1.623c-0.279,0.88-1.066,1.919-1.489,2.738c-3.024,5.857-4.597,12.32-7.781,18.109
			c-3.08,5.599-6.41,10.924-9.131,16.723c-2.934,6.252-6.038,12.41-8.707,18.78c-2.621,6.252-5.583,11.929-9.318,17.587
			c-3.75,5.681-6.122,11.456-8.661,17.726c-1.285,3.172-3.087,5.952-4.944,8.801c-3.803,5.835-7.759,11.551-11.797,17.222
			c-9.198,12.917-19.365,24.839-30.349,36.251c0.367-0.971,0.765-1.932,1.151-2.896c-2.325,0.032-4.295,2.683-6.382,2.563
			c1.579-0.042,3.14-1.679,4.669-2.193c0.872-0.294,1.382-0.228,1.897-0.837c0.736-0.869,1.047-2.875,1.382-3.985
			c0.727-2.419,1.478-4.535,2.633-6.784c1.042-2.03,1.724-3.894,1.216-6.194c-0.443-2.002-1.693-3.855-1.507-5.968
			c0.229-2.612,2.085-4.862,2.594-7.424c0.492-2.481,0.593-5.146,0.813-7.667c0.218-2.498-0.462-4.607-0.698-7.061
			c-0.408-4.216,1.192-9.544,2.295-13.589c1.373-5.031,1.994-10.369,2.717-15.535c0.723-5.176,2.642-10.375,2.186-15.606
			c-0.441-5.038,2.985-8.046,4.299-12.661c1.264-4.443,2.887-8.803,5.495-12.67c1.399-2.077,2.041-2.776,4.33-3.118
			c2.448-0.367,4.765-1.489,6.414-3.355c3.435-3.88,6.002-9.112,8.433-13.657c2.571-4.805,4.87-9.758,6.897-14.816
			c3.716-9.268,6.697-19.005,8.714-28.79c0.49-2.385,0.892-4.792,1.126-7.215c0.231-2.375-0.415-5.315,0.053-7.576
			c0.152-0.735,0.56-0.896,0.836-1.589c0.302-0.754,0.238-1.478,0.507-2.221c0.4-1.098,1.528-2.2,2.252-3.094
			c1.323-1.632,3.222-2.881,4.366-4.601c0.476-0.717,0.618-1.386,1.264-2.047c0.71-0.723,1.771-1.044,2.386-1.772
			c0.646-0.763,0.605-1.493,1.387-2.225c0.465-0.434,0.961-0.581,1.378-1.089c1.886-2.298,0.436-4.483-2.318-3.357
			c-0.712,0.291-3.543,1.703-4.055,2.344c-0.577,0.72-0.264,1.598-0.873,2.324c-0.687,0.824-1.617,1.04-2.2,2.09
			c-0.953,1.714-1.703,3.139-2.91,4.787c-1.181,1.613-2.32,3.57-3.099,5.414c-1.163-3.328-3.373-6.143-6.474-7.861
			c0.929-1.065,1.24-1.997,1.809-3.128c0.271-0.542,0.41-0.933,0.858-1.427c0.585-0.644,1.328-0.833,1.792-1.576
			c-0.034-0.339-0.053-0.68-0.056-1.021c0.217-0.34,0.516-0.574,0.899-0.702c0.66-0.833,1.703-1.525,1.11-2.866
			c-0.969-2.191-3.561-0.285-4.773,0.492c-0.699,0.447-1.636,0.84-2.018,1.57c-0.212,0.405,0.126,1.084-0.121,1.612
			c-0.367,0.782-1.244,0.952-1.597,1.96c-0.34,0.968-0.036,1.797-0.633,2.719c-0.861,1.333,0.104,0.694-1.644,0.696
			c-2.831,0.004-5.239-0.875-8.154-0.238c0.682-2.227,1.376-4.458,2.367-6.57c1.125-2.396,1.819-4.577,2.614-7.053
			c0.596-1.854,1.837-3.01,2.75-4.611c0.961-1.683,0.775-3.191,1.953-4.826c1.253-1.736,3.579-9.634-0.626-6.534
			c-1.346,0.992-2.182,2.569-3.202,3.847c-0.569,0.714-1.45,1.344-1.864,2.162c-0.567,1.12-0.15,2.382-0.602,3.527
			c-0.745,1.888-2.17,3.259-2.653,5.37c-0.582,2.556-1.112,4.824-1.977,7.346c-0.798,2.331-1.057,4.764-1.731,7.116
			c-0.576,2.009-2.555,2.42-4.241,3.733c-6.659,5.189-10.475,13.61-13.098,21.416c-3.97,11.814-5.269,24.442-3.227,36.768
			c0.845-0.687,3.074-1.23,3.632-2.037c0.4-0.577,0.073-1.722,0.492-2.376c1.26-1.968,2.871-1.106,3.889,0.581
			c2.298,3.809,4.699,8.835,5.087,13.308c-0.631,0.012-3.545,0.389-3.804,0.119c-0.33-0.341-0.886-1.049-1.278-1.322
			c-1.105-0.771-1.84-0.65-3.251-0.664c-0.607-0.006-3.304-0.41-3.692-0.038c-0.438,0.421-0.269,3.172-0.314,3.814
			c-0.418-0.841-0.678-2.18-1.155-2.954c-0.573-0.929-0.105-0.877-1.521-0.891c0.631-1.067,1.018-1.148,0.719-2.367
			c-0.124-0.506-0.574-0.985-0.809-1.45c-0.297-0.593-0.541-1.142-0.731-1.776c-1.038-3.455-1.485-7.377-1.714-10.967
			c-0.107-1.689-0.062-3.403-0.055-5.097c0.008-2.115-0.411-4.046-0.507-6.126c-0.102-2.173,0.331-4.105,0.844-6.171
			c0.46-1.854-0.263-3.484,0.058-5.296c0.28-1.585,1.117-2.98,1.352-4.617c0.227-1.578,0.206-1.713-0.434-2.819
			c-2.049-3.548-3.865,1.575-4.571,3.545c-0.427,1.185-1.15,2.344-1.363,3.591c-0.298,1.734,0.542,3.354,0.316,5.097
			c-0.293,2.266-0.76,4.257-0.574,6.592c0.133,1.66,0.719,3.196,0.877,4.847c0.413,4.301,0.682,8.425,1.703,12.648
			c1.058,4.382,2.855,8.311,3.774,12.661c0.364-0.763,0.726-1.526,1.089-2.29c-1.226,2.582-0.976,3.417,0.599,5.672
			c1.508,2.159,0.82,4.396,1.391,6.984c0.116,0.524,0.911,2.008,0.786,2.611c-0.181,0.872-1.558,2.083-2.042,2.845
			c-1.531,2.415-2.496,5.241-3.371,7.949c-0.777,2.406-1.321,4.761-1.745,7.253c-0.483,2.856-1.503,5.02-2.733,7.615
			c-1.983,4.179-0.432,8.597-1.628,12.975c-3.097,11.341-6.537,22.536-9.911,33.781c-0.754,2.513-1.401,4.834-1.175,7.48
			c0.28,3.281-0.143,6.077-0.763,9.312c-0.522,2.723-1.059,5.07-2.319,7.553c-1.407,2.775-2.171,5.001-1.418,8.098
			c0.453,1.859,1.221,1.806,3.005,2.163c1.177,0.235,2.506,0.28,3.479,1.073c1.041,0.848,0.794,2.024,1.442,2.972
			c0.549,0.806,2.058,1.212,2.404,2.199c0.714,2.042-2.075,2.866-3.553,3.651c-3.465,1.844-3.253,4.873-3.649,8.497
			c-1.128-0.402-3.698-1.144-4.8-0.506c-1.005,0.582-0.113,2.948,0.289,4.181c0.607,1.863,1.659,4.616,3.871,5.023
			c-3.439,3.485-6.519,7.075-9.443,11.001c-3.179,4.267-6.952,7.696-10.858,11.279c-3.455,3.167-6.803,6.48-10.771,9.008
			c-4.186,2.669-8.605,5.01-12.102,8.605c-2.924,3.008-5.091,6.625-7.792,9.816c-2.943,3.48-6.783,5.869-10.337,8.657
			c-0.669,0.525-1.816,1.18-2.249,1.888c-0.381,0.623,0.05,1.187-0.581,1.806c-0.57,0.558-1.442,0.318-2.039,0.68
			c-0.885,0.539-1.739,1.982-2.383,2.779c-3.108,3.848-6.012,7.907-8.445,12.219c-1.345,2.386-9.833,22.054-3.565,21.513
			c3.032-0.263,6.707-6.183,8.452-8.332c2.874-3.538,5.821-6.963,8.971-10.258c3.211-3.359,6.325-6.968,9.961-9.879
			c3.496-2.798,7.446-4.972,10.7-8.078c3.4-3.244,5.685-7.353,8.531-11.048c2.656-3.447,6.147-5.769,9.726-8.169
			c4.541-3.047,8.36-6.554,12.217-10.422c3.823-3.833,7.878-7.506,11.035-11.925c6.776-9.489,14.378-18.148,22.051-26.937
			c-1.677,0.047-2.902-1-3.613-2.46c1.361-0.804,6.71-5.203,6.468-0.766c4.797-5.386,8.943-11.409,13.048-17.33
			c2.227-3.215,4.443-6.444,6.537-9.746c1.13-1.781,4.841-9.651,6.835-9.571c-0.364-0.659-0.524-1.523-0.458-2.271
			c0.616,0.279,1.234,0.558,1.85,0.837c0.851,0.385,2.352,0.398,1.447,1.416c3.218-0.075,6.322-0.396,9.503-0.855
			c3.002-0.434,6.165,0.278,9.112-0.47c3.023-0.768,4.52-3.289,6.952-4.978c2.067-1.435,4.694-1.409,7.117-1.655
			c-1.435-3.098,3.244-3.784,2.421-0.49c4.821-1.519,9.601-3.945,13.399-7.23c4.178-3.615,10.315-5.607,15.395-7.716
			c5.45-2.264,10.531-5.624,15.453-8.859c2.557-1.681,5.091-3.399,7.637-5.098c0.7-0.468,2.971-1.45,3.356-2.212
			c0.312-0.616-0.18-2.915-0.223-3.657c1.096,0.566,2.072,1.36,3.008,1.002c0.811-0.312,1.72-2.301,2.343-2.94
			c1.548-1.59,3.477-2.449,5.468-3.35c4.24-1.914,7.105-4.798,10.779-7.511c0.629-0.465,5.003-4.074,5.666-3.899
			c0.473,0.126,1.327,1.91,1.711,2.284c0.638,0.62,1.349,0.958,2.108,1.365c3.899,2.094,7.828,1.987,12.003,2.975
			c2.809,0.665,6.21,0.496,9.2,0.9c4.12,0.556,8.221,1.476,12.313,0.817c1.713-0.277,3.482-0.229,5.193-0.085
			c2.061,0.173,2.576-0.405,4.391-0.939c1.236-0.364,2.524,0.051,3.791-0.212c1.344-0.281,2.733-0.895,3.796-1.754
			c-1.06-0.997-1.15-1.987,0.086-2.781c-2.116-0.607-5.683-0.331-7.951-0.193c-1.474,0.089-2.284,1.159-3.675,1.4
			c-1.393,0.242-2.975-0.194-4.443,0.012c-1.459,0.205-2.815,0.776-4.256,0.926c-1.934,0.203-3.972-0.15-5.908-0.219
			c-1.613-0.057-3.226-0.045-4.836-0.138c-1.75-0.1-4.659,0.443-6.205-0.132c19.841-7.278,36.929-21.184,48.521-38.805
			c2.812-4.275,5.475-8.739,7.104-13.616c0.363-1.088,0.509-2.62,1.27-3.162c0.683-0.485,1.757-0.471,2.506-0.91
			c1.756-1.029,3.364-1.487,5.296-2.208c1.814-0.679,3.779-1.63,5.382-2.704c0.807-0.541,1.331-1.347,2.147-1.825
			c0.756-0.442,1.72-0.536,2.519-0.953C877.131,678.496,884.658,675.756,882.795,672.875z M647.58,644.957
			c0.441-1.427,1.177-1.685,2.49-2.06c1.679-0.479,2.245-0.902,3.538-2.036c3.266-2.868,3.769,1.951,3.209,4.346
			c-0.666,2.849-1.608,5.751-5.059,5.928C648.658,651.291,646.716,647.758,647.58,644.957z M532.608,934.793
			c-0.387,0.626-1.36-0.393-1.453-0.479C531.692,933.889,533.424,933.48,532.608,934.793z M719.452,773.993
			c-0.362-0.684-0.368-0.695,0.162-1.259C720.197,773.26,720.143,773.68,719.452,773.993z M812.025,703.058
			c-0.054,0.028-0.119-2.116-0.121-2.188C812.598,701.661,813.31,702.363,812.025,703.058z M821.308,707.672
			c-0.961-0.517,0.356-0.819,0.394-0.905C821.696,706.78,822.271,708.187,821.308,707.672z M823.278,678.405
			c0.509-1.131,3.869-1.426,3.253,0.669C825.77,679.271,822.408,680.338,823.278,678.405z M832.943,670.723
			c1.053,1.205,1.602,2.755,1.69,4.34C831.791,674.009,831.44,673.415,832.943,670.723z"/>
		<path d="M547.602,203.944c0.725-0.404,1.136-1.954,1.348-2.718c0.124-0.454,0.042-0.996,0.162-1.426
			c0.124-0.449,0.476-1.273,0.512-1.65c0.049-0.513-0.256-0.907-0.149-1.42c0.258-1.243,1.696-2.466,2.536-3.297
			c0.978-0.968,1.084-1.827,1.945-2.819c0.454-0.523,1.153-0.57,1.64-1.08c0.13-0.136-0.179-0.678,0.029-0.943
			c0.509-0.651,1.244-0.368,1.522-1.289c0.967-3.204-3.852-1.458-4.999-0.825c-1.164,0.644-0.861,0.517-1.396,1.248
			c-0.011,0.014-0.333,0.813-0.406,0.943c-0.163,0.291-0.713,0.497-0.931,0.888c-0.525,0.941-0.509,1.794-1.032,2.805
			c-0.664,1.286-1.31,2.468-1.635,3.932c-0.099,0.45,0.259,0.768,0.126,1.279c-0.096,0.371-0.651,1.338-0.847,1.727
			c-0.631,1.247-1.191,1.605-1.198,2.988C544.806,203.425,546.566,204.522,547.602,203.944z"/>
		<path d="M623.234,276.095c-0.707,0.796-1.522,1.446-2.216,2.25c-1.364,1.581-2.285,3.406-3.352,5.081
			c-0.88,1.381-2.085,2.737-3.215,4.072c-1.188,1.4-3.264,2.266-3.416,4.379c-0.207,2.894,2.147,2.735,3.581,0.87
			c1.238-1.61,2.25-3.341,3.39-5.043c0.5-0.744,1.352-1.281,1.75-2.079c0.275-0.551,0.223-1.191,0.554-1.737
			c0.657-1.082,1.372-0.995,1.308-2.396c0.833,0.947,1.516-0.556,2.293-1.212c0.514-0.434,1.052-0.787,1.594-1.187
			c1.459-1.078,2.083-2.148,3.247-3.41c0.471-0.512,1.041-0.857,1.608-1.226c1.046-0.68,1.189-0.86,1.883-1.681
			c0.701-0.828,1.556-1.139,2.376-1.897c1.117-1.033,1.932-3.093,0.299-3.942c-1.407-0.733-3.251,0.815-4.455,1.381
			c-1.369,0.645-1.597,0.704-2.423,1.857c-0.918,1.284-2.186,2.118-3.348,3.453C624.043,274.467,624.014,275.218,623.234,276.095z"
			/>
		<path d="M301.405,375.829c0.039,0.4,0.007,0.795-0.1,1.182c1.164-1.739,0.051-6.11-2.418-3.979
			C300.108,373.581,301.043,374.52,301.405,375.829z"/>
		<path d="M346.78,350.418c2.943,1.943,6.149,3.572,9.234,5.281c3.42,1.897,6.085,4.437,9.3,6.578
			c3.01,2.004,5.389,3.644,7.972,6.196c1.518,1.5,2.799,3.234,4.643,4.156c1.924,0.962,4.115,1.865,6.166,2.504
			c-3.176-3.405-6.466-6.662-9.937-9.768c-3.01-2.69-6.545-4.518-9.523-7.194c-3.068-2.754-6.438-4.823-9.897-7.045
			c-3.341-2.146-6.789-4.919-10.548-6.242c0.662,0.547,1.766,1.616,2.05,2.385C346.784,348.745,345.272,349.437,346.78,350.418z"/>
	</g>
</g>
</svg>
